/* XPM */
static char *cdd545a9c97b434cb5caa68cb14b6999vyXmLft4aSyNXgBY[] = {
/* columns rows colors chars-per-pixel */
"60 60 117 2 ",
"   c #663210",
".  c #225500",
"X  c #225904",
"o  c #225C07",
"O  c #225D08",
"+  c #2F5A0C",
"@  c #22610B",
"#  c #22620C",
"$  c #22640E",
"%  c #226610",
"&  c #266615",
"*  c #2A6413",
"=  c #2F6316",
"-  c #2F6517",
";  c #2A661A",
":  c #2A6B1A",
">  c #2F691A",
",  c #2D681D",
"<  c #2D6C1C",
"1  c #336B1F",
"2  c #2F6620",
"3  c #336625",
"4  c #336E23",
"5  c #336E24",
"6  c #376A2A",
"7  c #377327",
"8  c #446A2A",
"9  c #426C37",
"0  c #4C6F35",
"q  c #44663B",
"w  c #427035",
"e  c #447736",
"r  c #4C7333",
"t  c #427933",
"y  c #4C6645",
"u  c #4A6C41",
"i  c #4C6E43",
"p  c #4E6848",
"a  c #51664B",
"s  c #516B4A",
"d  c #53684D",
"f  c #577D41",
"g  c #55774C",
"h  c #5E665B",
"j  c #577050",
"k  c #616B5F",
"l  c #627B5B",
"z  c gray40",
"x  c gray42",
"c  c gray43",
"v  c #6C7D68",
"b  c gray45",
"n  c #777777",
"m  c #7B7B7B",
"M  c gray49",
"N  c #DD4400",
"B  c #AA7744",
"V  c #4C803F",
"C  c #5E8353",
"Z  c #5F8156",
"A  c #62824D",
"S  c #668055",
"D  c #628C57",
"F  c #66865B",
"G  c #66885D",
"H  c #6D8667",
"J  c #778A6A",
"K  c #6C9362",
"L  c #77996E",
"P  c #748070",
"I  c #798675",
"U  c #779070",
"Y  c #82A07A",
"T  c #FFCD66",
"R  c #818181",
"E  c #848484",
"W  c #888888",
"Q  c gray55",
"!  c #889983",
"~  c #909090",
"^  c #979797",
"/  c gray60",
"(  c gray61",
")  c #8CA080",
"_  c #8CA685",
"`  c #99A296",
"'  c #96AD91",
"]  c #A1B39D",
"[  c #A6B09F",
"{  c gray64",
"}  c #A5A5A5",
"|  c #AAAAAA",
" . c #AEAEAE",
".. c #AEB5AA",
"X. c #ACBAA9",
"o. c #B2B2B2",
"O. c #B7B7B7",
"+. c #B6BBB5",
"@. c #BBBBBB",
"#. c gray74",
"$. c #FFAA88",
"%. c #B7C3B3",
"&. c #B6C0B5",
"*. c #BFC0BF",
"=. c #C1C2C1",
"-. c #C1C6C0",
";. c #C5C6C5",
":. c #C7C8C7",
">. c #C8C9C8",
",. c #CCCDCC",
"<. c #D0D1D0",
"1. c #D7D7D7",
"2. c gray85",
"3. c #DDDDDD",
"4. c #E1E2E1",
"5. c #E5E6E5",
"6. c #EEEEEE",
/* pixels */
". . . . . % % % % % % % % % % % % % % % % % % % % # . . . . . . . . . # % % % % % % % % % % % % % % X . . . . . . . . + ",
". . . . . % % % % % % % % % % % % % % % $ $ % % % # . . . . . . . X X # % % % % % % % % % % % % % % @ X . . . . . . . + ",
". . . . . % % % % % % % % % % % % % % % $ % $ $ % # . . . . . . . O % % % % % % % % % % % % % % % % % % X . . . . . . + ",
"O . . O O % % % t L L L L L L L L L L L G G G G G F S 0 . 8 S S S F G G G G G G G $.$.T T T T $.$.G G G 1 O O O . . . + ",
"% . . % % % % % D ,.,.,.,.,.,.,.,.,.,.,.| | | | | | | J . S | | | | | | | | | | | $.$.T T T T $.$.| | | e % % % . . . + ",
"% @ O % % % t _ ] ,.,.,.,.,.,.,.3.4.4.4.1.1.1.1.1.,.*...) [ *.*.*.*.*.<.1.=.*.*.*.T T T T T T T T T T T ! U : % @ O . + ",
"% % % % % % V ,.,.,.,.,.,.,.,.,.5.6.6.6.6.6.6.6.6.5.,.,.,.,.,.,.,.,.,.5.6.<.,.,.,.T T T T T T T T T T T | | 5 % % % . + ",
"% % % % < ] X.,.,.,.,.,.2.5.1.,.<.1.1.1.1.1.1.1.1.<.,.,.,.,.,.,.,.,.,.#.@.o.o.T T T T T T T T T T T T T T T ! ! 5 % # - ",
"% % % % 7 ,.,.,.,.,.,.,.3.6.2.,.,.,.,.,.,.,.,.,.,.,.,.,.,.,.,.,.,.T T T T T T T T T T T T $.$.$.$.$.$.$.$.$.| | 5 % % > ",
". $ % % 7 ,.,.,.,.,.#. .*.<.,.,.,.,.,.,.,.,.,.,.,.,.,.,.,.,.,.,.,.T T T T T T T T T T T T $.$.$.$.$.$.$.$.$.| | ` ` % > ",
". $ % % 7 ,.,.,.,.,.@.| @.,.,.,.,.,.,.,.,.,.,.,.,.,.,.,.,.,.,.,.,.T T T T T T T T T T $.$.B B B B B $.$.$.$.T T | | % > ",
". . . . . . r ,.,.,.,.,.@.| #.,.,.,.,.,.,.,.,.,.,.,.,.,.,.@.| | | T T T T T T T T T T $.$.B B B B B $.$.$.$.T T | | % > ",
". . . . . . r ,.,.,.,.,.@.| #.,.,.,.,.,.,.,.,.,.,.,.,.,.,.@.| T T T T T T B B $.$.$.$.B B B B B B B B B B B $.$.$.$.% > ",
". . . . . . . . A ,.,.,.,.,.O.| | | :.,.,.,.,.,.,.-.| | | | | T T T T T T B B $.$.$.$.B B B B B B B B B B B $.$.$.$.% > ",
". . . . . . . . f &.&.&.-.,.@. . . .-.:.,.,.,.,.,.-.| | | | | T T T T B B $.$.$.$.B B               B B B B B B $.$.% > ",
". . . . . . X % % % % % L ,.,.,.,.,. .| ,.,.,.,.,.-.| | | | | T T T T B B $.$.$.$.B B               B B B B B B $.$.% > ",
"X X X X X X o % % % % % D ] ] ] -.,.O.o.-.-.-.-.,.-.| | | | T T T     $.$.B B B B B B         B B B B B B B B B $.$.% > ",
"% % % % % % % % % % % % % % % % ] ,.,.,.| | |  .,.-.| | | | T     B B B B                           B B B B B B B B % > ",
"% % % % < D D D V % % % % % % % K _ +.*.| | ^ ( *.@.| | | | T     B B B B                           B B B B B B B B % > ",
"% % % % 7 ,.,.,._ % % % % % % % % % ` | | | n M | | | | B B N N N B B                                       B B c z % > ",
"% % % L Y ,.<.3.%.L L L L L t % % % C G G G ~ ~ ~ ^ | | B B N N N B B                                       B B b c % > ",
"% % % ,.,.,.1.6.4.,.,.,.,.,.D % % % % % % % B B B B B B T T B B B N N     N N     | | | | | |           B B Q W m n % > ",
"% % % ,.,.,.<.3.1.,.,.,.,.,.' L L L < % % % B B B B B B T T B B B N N     N N     | | | | | |           B B M n Q ~ % > ",
"% % % ,.,.,.,.,.,.,.,.,.,.,.,.,.,.,.7 % B B T T T T T T B B B T T         N N         | | | | | | | | | | | c z { | % > ",
"% % % ,.,.,.,.,.,.,.=.O.=.,.,.,.B B B B T T T T T T T T T T T T T     N N     N N             | | | | | / ^ c z E W % > ",
"% % % ,.,.,.,.,.,.,.@.| @.,.,.,.B B B B T T T T T T T T T T T T T     N N     N N             | | | | | ~ W x z n n % > ",
"% % % ,.,.,.;.o.o.o. .| B B B B T T T T T T T T T T T T T T $.$.$.    N N     N N                 | / ~ n c ~ / b x % > ",
"% % % ,.,.,.-.| | | | | B B B B T T T T T T T T T T T T T T $.$.$.    N N     N N                 | ^ W c z { | c z % > ",
"% % % ,.,.,.-.| | | | B T T T T T T T T T T     T T T T T T $.        N N         N N             M ^ } R n W Q 6 ; % > ",
"% % % ,.,.,.-.| | | | B T T T T T T T T T T     T T T T T T $.        N N         N N             n ^ | E n E W , % % > ",
"% % % ,.,.,.-.| | B B B T T T T T T $.$.$.$.        T T T T T     B B N N         N N             | ^ W c z z z ; % % > ",
"% % % ,.,.:.=.| | B B B T T T T T T $.$.$.$.        T T T T T     B B N N         N N             { Q R c z h h ; % % > ",
"% % % ,.>.| | B B T T T T T T T T T $.$.            T T T T T     B B N N N N N N                   z z z z ; % % % % > ",
"% % % ,.>.B B T T T T T T T T T $.$.        B B         T T $.B B B B B B N N                           h h ; % % % % > ",
"% % % ,.>.B B T T T T T T T T T $.$.        B B         T T $.B B B B B B N N                           . . $ % % % % > ",
"% % % B B $.$.T T                                   B B           B B B B B B B B N N                   . . @ # # # % > ",
"% % % B B $.$.T T                                   B B           B B B B B B B B N N                   . . . . . . % > ",
"% % % B B $.$.T T $.$.T                                       $.$.$.$.$.$.B B B B N N B B                   . . . . O = ",
"% % % B B $.$.T T $.$.T                                       $.$.$.$.$.$.B B B B N N B B                   . . . . . + ",
"% % % $.$.$.$.$.$.T T T T T T T T T                         T T T $.$.$.$.B B B B N N B B B B               . . . . . + ",
"% % % $.$.$.$.$.$.T T T T T T T T T                         T T T $.$.$.$.B B B B N N B B B B               . . . . . + ",
"% % % B B $.$.$.$.T T T T T T T T T                     $.$.T $.$.$.$.$.$.B B B B B B B B B B B B           * O . . . + ",
"% % % B B $.$.$.$.$.$.$.T T         B B                 $.$.$.$.$.$.$.B B B B B B B B B B B B B B           5 % . . . + ",
"% % % B B $.$.$.$.$.$.$.T T         B B                 $.$.$.$.$.$.$.B B B B B B B B B B B B B B           ! ! 1 # . + ",
"% % %     B B $.$.$.$.$.                    B B         $.$.$.$.$.B B B B B B B B B B B B B B B B       o.| | | 5 % . + ",
"% % %     B B $.$.$.$.$.                    B B         $.$.$.$.$.B B B B B B B B B B B B B B B B        .| | | 5 % # - ",
"% % % % ,     B B B B           B B $.$.B B         $.$.$.$.$.B B B B B B B B B B B B B B B B           | | | | 5 % % > ",
"% % % % %     B B B B           B B $.$.B B         $.$.$.$.$.B B B B B B B B B B B B B B B B           | | ~ Q , % % > ",
"% % % % %     B B B B B B B B B B B $.$.$.$.        $.$.$.$.B B B B B B B B B B B B B B B B B       | | | | Q W , % % > ",
"% % % % %     B B B B B B B B B B B $.$.$.$.        $.$.$.$.B B B B B B B B B B B B B B B B B       | | ~ W x z ; % % > ",
"% % % % % % %         B B B B B B B B B B B B B     B B B B B B B B B B B B B B B B B B B           | } Q R k h ; % % > ",
"% % % % % % % % % % %           B B B B B B B B B B B B B B B B B B B B B B B B B                 | ^ W c z ; % % % % > ",
"% # # # # % % % % % 4           B B B B B B B B B B B B B B B B B B B B B B B B B                 { Q M c z ; % % % % > ",
"% . . . . % % % % % G | | | #.,.        B B B B B B B B B B B B B                     | | | ( W W W b z z z ; % % % % > ",
"O . . . . O # % % % Z ( { | O.*.        B B B B B B B B B B B B B                     ( ( ( / ^ W R b z a y & % @ O O = ",
". . . . . . X % % % g W / | | | ~ W x z                           j n ( | c z z x W W W W W ^ | ~ n c z 3 % % % . . . + ",
". . . . . . X % % % w l I ~ ~ ~ R m d y % % . . . . . X O # % % % 9 j H U s y y p l v R M m E ~ P j s y 2 % @ O . . . + ",
". . . . . . X % % % % % q z z z z z ; % % % . . . . . . . O % % % % % % % % % % % % 6 n b z z z q % % % % % . . . . . + ",
". . . . . . . O @ % % % 3 q q q q q & % O O . . . . . . . X O # % % % % % % % % % % , i u q q q 3 % % % % % . . . . . + ",
". . . . . . . . X % % % % % % % % % % % . . . . . . . . . . . O % % % % % % % % % % % % % % % % % % % % % % . . . . . + "
};
