/* XPM */
static char *b7314f36d6274528c56539f0c26d5452lMbXdEA8VQZl14RO[] = {
/* columns rows colors chars-per-pixel */
"60 60 162 2 ",
"   c #225500",
".  c #225904",
"X  c #225C07",
"o  c #225D08",
"O  c #2F5A0C",
"+  c #22610B",
"@  c #22620C",
"#  c #22640E",
"$  c #226610",
"%  c #266615",
"&  c #2A6413",
"*  c #2F6316",
"=  c #2F6517",
"-  c #2A661A",
";  c #2C671C",
":  c #2A6B1A",
">  c #2F691A",
",  c #2C681D",
"<  c #2D6C1C",
"1  c #336B1F",
"2  c #2F6620",
"3  c #336625",
"4  c #336E24",
"5  c #376A2A",
"6  c #377327",
"7  c #3D6C31",
"8  c #7E461D",
"9  c #56483F",
"0  c #5E4939",
"q  c #5A493C",
"w  c #6E472A",
"e  c #6A472E",
"r  c #724727",
"t  c #764624",
"y  c #7A4620",
"u  c #734728",
"i  c #664832",
"p  c #624835",
"a  c #446A2A",
"s  c #5D6028",
"d  c #42742E",
"f  c #426C37",
"g  c #4C6F35",
"h  c #44663B",
"j  c #427035",
"k  c #447736",
"l  c #4C7333",
"z  c #427933",
"x  c #4E4946",
"c  c gray29",
"v  c #564940",
"b  c #4C6645",
"n  c #4A6C41",
"m  c #4C6E43",
"M  c #4E6848",
"N  c #51664B",
"B  c #516B4A",
"V  c #53684D",
"C  c #577D41",
"Z  c #5E665B",
"A  c #577051",
"S  c #616B5F",
"D  c #7E6451",
"F  c #627B5B",
"G  c gray40",
"H  c gray42",
"J  c #6C6C6C",
"K  c #6C7D68",
"L  c gray45",
"P  c #777777",
"I  c #7B7B7B",
"U  c gray50",
"Y  c #844713",
"T  c #874517",
"R  c SaddleBrown",
"E  c #8A4819",
"W  c #884B1F",
"Q  c #8F4D1E",
"!  c #8A4D21",
"~  c #985927",
"^  c #93562A",
"/  c #A66E3A",
"(  c #3DA43D",
")  c #4C803F",
"_  c #44A33F",
"`  c #62824D",
"'  c #668055",
"]  c #628C57",
"[  c #66865B",
"{  c #66885D",
"}  c #6D8667",
"|  c #778A6A",
" . c #778D6C",
".. c #77996E",
"X. c #748070",
"o. c #798675",
"O. c #779070",
"+. c #74D574",
"@. c #BD8736",
"#. c #BC8836",
"$. c #D0991E",
"%. c #D59F1F",
"&. c goldenrod",
"*. c #DBA929",
"=. c #DCA929",
"-. c #DDAD32",
";. c #82A07A",
":. c #C09662",
">. c #81D479",
",. c #EBCF7B",
"<. c #818181",
"1. c #848484",
"2. c #888888",
"3. c gray55",
"4. c #889983",
"5. c #8C9E88",
"6. c #909090",
"7. c gray58",
"8. c gray60",
"9. c #9F9F9F",
"0. c #B49A87",
"q. c #8CA080",
"w. c #8CA685",
"e. c #99A296",
"r. c #A1B39D",
"t. c #A6B09F",
"y. c gray63",
"u. c #A5A5A5",
"i. c #AAAAAA",
"p. c #ACACAC",
"a. c #AEB5AA",
"s. c #ACBAA9",
"d. c #B2B3B2",
"f. c #B7B7B7",
"g. c #DBBF89",
"h. c #D6BA91",
"j. c #96ED92",
"k. c #9DED94",
"l. c #B7C3B3",
"z. c #B6C0B5",
"x. c #BFC0BF",
"c. c #E2CA97",
"v. c #E6D09B",
"b. c #E8D39D",
"n. c #EFDEAA",
"m. c #C3EBA0",
"M. c #E3E9AB",
"N. c #E9E9AD",
"B. c #F1E1AC",
"V. c #F4E4AF",
"C. c #F6E8B1",
"Z. c #C1C2C1",
"A. c #C3C4C3",
"S. c #C5C6C5",
"D. c #C7C8C7",
"F. c #C8C9C8",
"G. c #CCCDCC",
"H. c #D0D1D0",
"J. c gray83",
"K. c #DDDEDD",
"L. c #E1E2E1",
"P. c #EEEEEE",
/* pixels */
"          $ $ $ $ $ $ $ $ $ $ $ $ $ $ $ $ $ $ $ $ @                   @ $ $ $ $ $ $ $ $ $ $ $ $ $ $ .                 O ",
"          $ $ $ $ $ $ $ $ $ $ $ $ $ $ $ $ $ $ $ $ @               . . @ $ $ $ $ $ $ $ $ $ $ $ $ $ $ + .               O ",
"          $ $ $ $ $ $ $ $ $ $ $ $ $ $ $ $ $ $ $ $ @               o $ $ $ $ $ $ $ $ $ $ $ $ $ $ $ $ $ $ .             O ",
"o     o o $ $ $ z ......................{ { { { { [ ' g   a ' ' ' [ { { { { { { { { { { { { { { { { { { 1 o o o       O ",
"$     $ $ $ $ $ ] G.G.G.G.G.G.G.G.G.G.G.i.i.i.i.i.i.i.|   ' i.i.i.i.i.i.i.i.i.i.i.i.i.i.i.i.i.i.i.i.i.i.k $ $ $       O ",
"$ + o $ $ $ z w.r.G.G.G.G.G.G.G.K.L.L.L.J.J.J.J.J.G.x.a.q.t.x.x.x.x.x.H.J.Z.x.x.x.x.x.x.x.x.x.x.x.x.d.i.4.O.: $ + o   O ",
"$ $ $ $ $ $ ) G.G.G.0.Q R R R R R R R R R R R R R R R R R R R R R R R R R R R R R R R R R R R R ^ 0.f.i.i.i.4 $ $ $   O ",
"$ $ $ $ < r.s.G.G.G.^ R R R R R R R R R R R R R R R R R R R R R R R R R R R R R R R R R R R R R R Q p.i.i.i.4.4.4 $ @ = ",
"$ $ $ $ 6 G.G.G.G.G.R R R R R x q i t 8 R R R R R R R R R R R R R R R R R R R R R R ~ R R R R R R R i.i.i.i.i.i.4 $ $ > ",
"  # $ $ 6 G.G.G.G.G.R R R R R c c c c c c q p w y T R R R R R R R R R R R R R R R R :.g.~ R R R R R i.i.i.i.i.i.e.e.$ > ",
"  # $ $ 6 G.G.G.G.G.R R R R R c c c c c c c c c c c v 0 e t 8 R R R R R R R R R R R :.C.v.~ R R R R i.i.i.i.i.i.i.i.$ > ",
"            l G.G.G.R R R R R c c c c c c c c c c c c c c c c x q i r y R R R R R &.&.B.h.c./ R R R i.i.i.i.i.i.i.i.$ > ",
"            l G.G.G.R R R R R c c c c c c c c c c c c c c c c c c c c c c v 0 w y &.&.C.n.h.B.:.R R i.i.i.i.i.i.i.i.$ > ",
"                ` G.R R R R R c c c c c c c c c c c c c c c c c c c c c c c c c c &.&.C.C.V.C.C.R R i.i.i.i.i.i.3.2.$ > ",
"                C z.R R R R R c c c c c c c c c c c c c c c c c c c c c c c c c c &.&.C.C.C.C.C.R R i.i.i.i.i.i.3.2.$ > ",
"            . $ $ $ R R R R R c c c c c c c c c c c c c c c c c c c c c c c c c c e :.C.C.C.C.C.R R i.i.i.i.i.i.3.2.$ > ",
". . . . . . X $ $ $ R R R R R c c c c c c c c c c c c c c c c c c c c c c c c c c e :.C.C.C.C.C.R R i.i.i.i.i.i.3.2.$ > ",
"$ $ $ $ $ $ $ $ $ $ R R R R R c c c c c c c c c c c c c c c c c c c c c c c c c c e :.C.C.C.C.C.R R i.i.i.i.i.i.3.2.$ > ",
"$ $ $ $ < ] ] ] ) $ R R R R R c c c c c c c c c c c c c c c c c c c c c c c c c c e :.C.C.C.C.C.R R i.i.i.i.i.i.<.I $ > ",
"$ $ $ $ 6 G.G.G.w.$ R R R R R c c c c c c c c c c c c c c c c c c c c c c c c c c e :.M.m.N.C.C.R R i.i.i.i.i.i.J G $ > ",
"$ $ $ ..;.G.H.K.l...R R R R R c c c c c c c c c c c c c c c c c c c c c c c c c c e :.k.( _ C.C.R R i.i.i.i.8.8.L J $ > ",
"$ $ $ G.G.G.J.P.L.G.R R R R R c c c c c c c c c c c c c c c c c c c c c c c c c c e :.j.+.>.C.C.R R i.i.i.i.3.2.I P $ > ",
"$ $ $ G.G.G.H.K.J.G.R R R R R c c c c c c c c c c c c c c c c c c c c c c c c c c e :.N.m.M.C.C.R R i.i.i.i.U P 3.6.$ > ",
"$ $ $ G.G.G.G.G.G.G.R R R R R c c c c c c c c c c c c c c c c c c c c c c c c c c e :.C.C.C.C.C.R R i.i.i.i.J G y.i.$ > ",
"$ $ $ G.G.G.G.G.G.G.R R R R R c c c c c c c c c c c c c c c c c c c c c c c c c c e :.C.C.C.C.C.R R i.i.8.7.J G 1.2.$ > ",
"$ $ $ G.G.G.G.G.G.G.R R R R R c c c c c c c c c c c c c c c c c c c c c c c c c c e :.C.C.C.C.C.R R i.i.6.2.H G P P $ > ",
"$ $ $ G.G.G.S.d.d.d.R R R R R c c c c c c c c c c c c c c c c c c c c c c c c c c e :.C.C.C.C.C.R R 8.6.P J 6.8.L H $ > ",
"$ $ $ G.G.G.A.i.i.i.R R R R R c c c c c c c c c c c c c c c c c c c c c c c c c c e :.C.C.C.C.C.R R 7.2.J G y.i.J G $ > ",
"$ $ $ G.G.G.A.i.i.i.R R R R R c c c c c c c c c c c c c c c c c c c c c c c c c c e :.C.C.C.C.C.R R 7.u.<.P 2.3.5 - $ > ",
"$ $ $ G.G.G.A.i.i.i.R R R R R c c c c c c c c c c c c c c c c c c c c c c c c c c e @.=.-.,.C.C.R R 7.i.1.P 1.2., $ $ > ",
"$ $ $ G.G.G.A.i.i.i.R R R R R c c c c c c c c c c c c c c c c c c c c c c c c c c e $.&.&.=.C.C.R R 7.2.J G G G - $ $ > ",
"$ $ $ G.G.D.Z.i.i.i.R R R R R c c c c c c c c c c c c c c c c c c c c c c c c c c e %.&.&.-.C.C.R R 3.<.J G Z Z - $ $ > ",
"$ $ $ G.F.i.i.i.i.i.R R R R R c c c c c c c c c c c c c c c c c c c c c c c c c c e #.-.*.,.C.C.R R G G G G - $ $ $ $ > ",
"$ $ $ G.F.i.i.i.i.i.R R R R R c c c c c c c c c c c c c c c c c c c c c c c c c c e :.C.C.C.C.C.R R Z Z Z Z - $ $ $ $ > ",
"$ $ $ G.F.i.i.i.i.i.R R R R R c c c c c c c c c c c c c c c c c c c c c c c c c c e :.C.C.C.C.C.R R .       # $ $ $ $ > ",
"$ $ $ A.x.i.i.i.i.i.R R R R R c c c c c c c c c c c c c c c c c c c c c c c c c c e :.C.C.C.C.C.R R .       + @ @ @ $ > ",
"$ $ $ i.i.i.i.i.i.i.R R R R R c c c c c c c c c c c c c c c c c c c c c c c c c c e :.C.C.C.C.C.R R                 $ > ",
"$ $ $ i.i.i.i.i.i.i.R R R R R c c c c c c c c c c c c c c c c c c c c c c c c c c e :.C.C.C.C.C.R R                 o * ",
"$ $ $ i.i.i.i.i.i.i.R R R R R c c c c c c c c c c c c c c c c c c c c c c c c c c e :.C.C.C.C.C.R R .                 O ",
"$ $ $ 8.8.8.8.8.9.i.R R R R R c c c c c c c c c c c c c c c c c c c c c c c c c c e :.C.C.C.C.C.R R d o               O ",
"$ $ $ 2.2.2.2.2.7.i.R R R R R c c c c c c c c c c c c c c c c c c c c c c c c c c e :.C.V.C.C.C.R R ] $ .             O ",
"$ $ $ L P 9.7.2.7.i.R R R R R c c c c c c c c c c c c c c c c c c c c c c c c c c &.&.B.h.n.C.C.R R 5.O. .| & o       O ",
"$ $ $ G J i.y.2.7.i.R R R R R c c c c c c c c c c c c c c c c c c c c c c c c c c &.&.C.n.h.B.C.R R i.i.i.i.4 $       O ",
"$ $ $ L I 6.7.y.9.6.R R R R R c c c c c c c c c c c c c c c c c c c c c c c c c c &.&.C.C.V.C.C.R R A.A.d.i.4.4.1 @   O ",
"$ $ $ P I 2.6.i.9.2.R R R R R c c c c c c c c c c c c c c c c c c c c c c c c c c &.&.C.C.C.C.C.R R G.G.d.i.i.i.4 $   O ",
"$ $ $ 5 7 I I P P I R R R R R c c c c c c c c c c c c c c c c c c c c c c c c c c e :.C.C.C.C.C.R R d.d.p.i.i.i.4 $ @ = ",
"$ $ $ $ , P L G J P R R R R R c c c c c c c c c c c c c c c c c c c c c c c c c c e :.C.C.C.C.C.R R i.i.i.i.i.i.4 $ $ > ",
"$ $ $ $ $ , , - ; , R R R R R c c c c c c c c c c c c c c c c c c c c c c c c c c e :.C.C.C.C.C.R R i.i.i.i.6.3., $ $ > ",
"$ $ $ $ $ $ $ $ $ $ R R R R R c c c c c c c c c c c c c c c c c c c c c c c c c c e :.C.C.C.C.C.R R i.i.i.i.3.2., $ $ > ",
"$ $ $ $ $ $ $ $ $ $ R R R R R T y w 0 9 c c c c c c c c c c c c c c c c c c c c c c :.C.C.C.C.C.R R i.i.6.2.H G - $ $ > ",
"$ $ $ $ $ $ $ $ $ $ R R R R R R R R R R R y u i q x c c c c c c c c c c c c c c c c R / b.C.C.C.R R i.u.3.<.S Z - $ $ > ",
"$ $ $ $ $ $ $ $ $ $ R R R R R R R R R R R R R R R R 8 t e 0 9 c c c c c c c c c c c R R ~ b.C.C.R R 7.2.J G - $ $ $ $ > ",
"$ @ @ @ @ $ $ $ $ $ R R R R R R R R R R R R R R R R R R R R R T y w p q c c c c c c R R R ~ g.C.R R 3.U J G - $ $ $ $ > ",
"$         $ $ $ $ $ R R R R R R R R R R R R R R R R R R R R R R R R R R R 8 t i q x R R R R R :.R R L G G G - $ $ $ $ > ",
"o         o @ $ $ $ Y R R R R R R R R R R R R R R R R R R R R R R R R R R R R R R R R R R R R R R W L G N b % $ + o o * ",
"            . $ $ $ s ! R R R R R R R R R R R R R R R R R R R R R R R R R R R R R R R R R R R R E D J G 3 $ $ $       O ",
"            . $ $ $ j F o.6.6.6.<.I V b $ $           . o @ $ $ $ f A } O.B b b M F K <.U I 1.6.X.A B b 2 $ + o       O ",
"            . $ $ $ $ $ h G G G G G - $ $ $               o $ $ $ $ $ $ $ $ $ $ $ $ 5 P L G G G h $ $ $ $ $           O ",
"              o + $ $ $ 3 h h h h h % $ o o               . o @ $ $ $ $ $ $ $ $ $ $ , m n h h h 3 $ $ $ $ $           O ",
"                . $ $ $ $ $ $ $ $ $ $ $                       o $ $ $ $ $ $ $ $ $ $ $ $ $ $ $ $ $ $ $ $ $ $           O "
};
