/* XPM */
static char *_c8e7d8d587e486ab2d65f86f017253fKZ8BEY5cGEMpgURo[] = {
/* columns rows colors chars-per-pixel */
"60 60 146 2 ",
"   c #6F370F",
".  c #6E3914",
"X  c #6E3D1B",
"o  c #225500",
"O  c #225904",
"+  c #225C07",
"@  c #225D08",
"#  c #2F5A0C",
"$  c #22610B",
"%  c #22620C",
"&  c #22640E",
"*  c #226610",
"=  c #266615",
"-  c #2A6413",
";  c #2F6316",
":  c #2F6517",
">  c #2A661A",
",  c #2C671C",
"<  c #2A6B1A",
"1  c #2F691A",
"2  c #2C681D",
"3  c #2D6C1C",
"4  c #336B1F",
"5  c #2F6620",
"6  c #336625",
"7  c #336E24",
"8  c #376A2A",
"9  c #377327",
"0  c #3D6C31",
"q  c #4A4D1F",
"w  c #446A2A",
"e  c #42742E",
"r  c #426C37",
"t  c #4C6F35",
"y  c #44663B",
"u  c #427035",
"i  c #447736",
"p  c #4C7333",
"a  c #427933",
"s  c #655041",
"d  c #4C6645",
"f  c #4A6C41",
"g  c #4C6E43",
"h  c #4E6848",
"j  c #51664B",
"k  c #516B4A",
"l  c #53684D",
"z  c #577D41",
"x  c #5E665B",
"c  c #577051",
"v  c #616B5F",
"b  c #627B5B",
"n  c gray40",
"m  c gray42",
"M  c #6C6C6C",
"N  c #6C7D68",
"B  c gray45",
"V  c #777777",
"C  c #7B7B7B",
"Z  c gray50",
"A  c #844713",
"S  c SaddleBrown",
"D  c #884B1F",
"F  c #8F4D1E",
"G  c #93562A",
"H  c ForestGreen",
"J  c #299129",
"K  c #2F972F",
"L  c #309730",
"P  c #4C803F",
"I  c #62824D",
"U  c #668055",
"Y  c #628C57",
"T  c #66865B",
"R  c #66885D",
"E  c #52B652",
"W  c #6D8667",
"Q  c #778A6A",
"!  c #778D6C",
"~  c #77996E",
"^  c #748070",
"/  c #798675",
"(  c #779070",
")  c #60C260",
"_  c #DEAB1C",
"`  c goldenrod",
"'  c #F1C40C",
"]  c #FED80B",
"[  c #82A07A",
"{  c #FBDE4D",
"}  c #FADF58",
"|  c #FAE058",
" . c #818181",
".. c #848484",
"X. c #888888",
"o. c gray55",
"O. c #889983",
"+. c #8C9E88",
"@. c #909090",
"#. c gray58",
"$. c gray60",
"%. c #9F9F9F",
"&. c #B49A87",
"*. c #8CA080",
"=. c #8CA685",
"-. c #99A296",
";. c #A1B39D",
":. c #A6B09F",
">. c gray63",
",. c #A5A5A5",
"<. c #AAAAAA",
"1. c #ACACAC",
"2. c #AEB5AA",
"3. c #ACBAA9",
"4. c #B2B3B2",
"5. c #B7B7B7",
"6. c tan",
"7. c #82E282",
"8. c #89E889",
"9. c #90EE90",
"0. c #96ED92",
"q. c #A3EC96",
"w. c #A9EC98",
"e. c #B6EB9D",
"r. c #B6EC9D",
"t. c #BCEB9F",
"y. c #BCEC9F",
"u. c #B7C3B3",
"i. c #B6C0B5",
"p. c #BFC0BF",
"a. c #D6EAA7",
"s. c #DCE9A8",
"d. c #EFE8AF",
"f. c #F0E8AF",
"g. c #F6E8B1",
"h. c #C1C2C1",
"j. c #C3C4C3",
"k. c #C5C6C5",
"l. c #C7C8C7",
"z. c #C8C9C8",
"x. c #CCCDCC",
"c. c #D0D1D0",
"v. c gray83",
"b. c #DDDEDD",
"n. c #E1E2E1",
"m. c #EEEEEE",
/* pixels */
"o o o o o * * * * * * * * * * * * * * * * * * * * % o o o o o o o o o % * * * * * * * * * * * * * * O o o o o o o o o # ",
"o o o o o * * * * * * * * * * * * * * * * * * * * % o o o o o o o O O % * * * * * * * * * * * * * * $ O o o o o o o o # ",
"o o o o o * * * * * * * * * * * * * * * * * * * * % o o o o o o o @ * * * * * * * * * * * * * * * * * * O o o o o o o # ",
"@ o o @ @ * * * a ~ ~ ~ ~ ~ ~ ~ ~ ~ ~ ~ R R R R R T U t o w U U U T R R R R R R R R R R R R R R R R R R 4 @ @ @ o o o # ",
"* o o * * * * * Y x.x.x.x.x.x.x.x.x.x.x.<.<.<.<.<.<.<.Q o U <.<.<.<.<.<.<.<.<.<.<.<.<.<.<.<.<.<.<.<.<.<.i * * * o o o # ",
"* $ @ * * * a =.;.x.x.x.x.x.x.x.b.n.n.n.v.v.v.v.v.x.p.2.*.:.p.p.p.p.p.c.v.h.p.p.p.p.p.p.p.p.p.p.p.p.4.<.O.( < * $ @ o # ",
"* * * * * * P x.x.x.&.F S S S S S S S S S S S S S S S S S S S S S S S S S S S S S S S S S S S S G &.5.<.<.<.7 * * * o # ",
"* * * * 3 ;.3.x.x.x.G S S S S S S S S S S S S S S S S S S S S S S S S S S S S S S S S S S S S S S F 1.<.<.<.O.O.7 * % : ",
"* * * * 9 x.x.x.x.x.S S g.g.g.g.g.g.g.g.g.g.g.g.g.g.g.g.g.g.g.g.g.g.g.g.g.g.g.g.g.g.g.g.g.g.g.g.S S <.<.<.<.<.<.7 * * 1 ",
"o & * * 9 x.x.x.x.x.S S g.g.g.g.g.g.g.g.g.g.g.g.g.g.g.g.g.g.g.g.g.g.g.g.g.g.g.g.g.g.g.g.g.g.g.g.S S <.<.<.<.<.<.-.-.* 1 ",
"o & * * 9 x.x.x.x.x.S S g.g.g.g.g.g.g.g.g.g.g.g.g.g.g.g.g.g.g.g.g.g.g.g.g.g.g.g.g.g.g.g.g.g.g.g.S S <.<.<.<.<.<.<.<.* 1 ",
"o o o o o o p x.x.x.S S g.g.g.6.6.6.6.6.6.6.6.6.6.6.6.6.6.6.6.6.6.6.6.6.6.6.6.6.6.6.6.6.6.g.g.g.S S <.<.<.<.<.<.<.<.* 1 ",
"o o o o o o p x.x.x.S S g.g.g.6.6.6.6.6.6.6.6.6.6.6.6.6.6.6.6.6.6.6.6.6.6.6.6.6.6.6.6.6.6.g.g.g.S S <.<.<.<.<.<.<.<.* 1 ",
"o o o o o o o o I x.S S g.g.g.g.g.g.g.g.g.g.g.g.g.g.g.g.g.g.g.g.g.g.g.g.g.g.g.g.g.g.g.g.g.g.g.g.S S <.<.<.<.<.<.o.X.* 1 ",
"o o o o o o o o z i.S S g.g.g.g.g.g.g.g.g.g.g.g.g.g.g.g.g.g.g.g.g.g.g.g.g.g.g.g.g.g.g.g.g.g.g.g.S S <.<.<.<.<.<.o.X.* 1 ",
"o o o o o o O * * * S S g.g.g.g.g.g.g.g.g.g.g.g.g.g.g.g.g.g.g.g.g.g.g.g.g.g.g.g.g.g.g.g.g.g.g.g.S S <.<.<.<.<.<.o.X.* 1 ",
"O O O O O O + * * * S S g.g.g.g.g.g.g.g.g.g.g.g.g.g.g.g.g.g.g.g.g.g.g.g.g.g.g.g.g.g.g.g.g.g.g.g.S S <.<.<.<.<.<.o.X.* 1 ",
"* * * * * * * * * * S S g.g.g.g.g.g.g.g.g.g.g.g.g.g.g.s.t.w.w.t.a.g.g.g.g.g.g.g.g.g.g.g.g.g.g.g.S S <.<.<.<.<.<.o.X.* 1 ",
"* * * * 3 Y Y Y P * S S g.g.g.g.g.g.g.g.g.g.g.g.g.d.w.9.9.9.9.9.9.q.d.g.g.g.g.g.g.g.g.g.g.g.g.g.S S <.<.<.<.<.<. .C * 1 ",
"* * * * 9 x.x.x.=.* S S g.g.g.g.g.g.g.g.g.g.g.g.g.e.9.E H H H H E 9.e.g.g.g.g.g.g.g.g.g.g.g.g.g.S S <.<.<.<.<.<.M n * 1 ",
"* * * ~ [ x.c.b.u.~ S S g.g.g.g.g.g.g.g.g.g.g.g.g.0.9.8.K H H L 8.9.0.g.g.g.g.g.g.g.g.g.g.g.g.g.S S <.<.<.<.$.$.B M * 1 ",
"* * * x.x.x.v.m.n.x.S S g.g.g.g.g.g.g.g.g.g.g.g.g.0.9.9.7.J J 7.9.9.0.g.g.g.g.g.g.g.g.g.g.g.g.g.S S <.<.<.<.o.X.C V * 1 ",
"* * * x.x.x.c.b.v.x.S S g.g.g.g.g.g.g.g.g.g.g.g.g.r.9.9.9.) ) 9.9.9.r.g.g.g.g.g.g.g.g.g.g.g.g.g.S S <.<.<.<.Z V o.@.* 1 ",
"* * * x.x.x.x.x.x.x.S S g.g.g.g.g.g.g.g.g.g.g.g.g.f.q.9.9.9.9.9.9.w.d.g.g.g.g.g.g.g.g.g.g.g.g.g.S S <.<.<.<.M n >.<.* 1 ",
"* * * x.x.x.x.x.x.x.S S g.g.g.g.g.g.g.g.g.g.g.g.g.g.g.a.y.w.w.y.s.g.g.g.g.g.g.g.g.g.g.g.g.g.g.g.S S <.<.$.#.M n ..X.* 1 ",
"* * * x.x.x.x.x.x.x.S S g.g.g.g.g.g.g.g.g.g.g.g.g.g.g.g.g.g.g.g.g.g.g.g.g.g.g.g.g.g.g.g.g.g.g.g.S S <.<.@.X.m n V V * 1 ",
"* * * x.x.x.k.4.4.4.S S g.g.g.g.g.g.g.g.g.g.g.g.g.g.g.g.g.g.g.g.g.g.g.g.g.g.g.g.g.g.g.g.g.g.g.g.S S $.@.V M @.$.B m * 1 ",
"* * * x.x.x.j.<.<.<.S S g.g.g.g.g.g.g.g.g.g.g.g.g.g.g.g.g.g.g.g.g.g.g.g.g.g.g.g.g.g.g.g.g.g.g.g.S S #.X.M n >.<.M n * 1 ",
"* * * x.x.x.j.<.<.<.S S g.g.g.g.g.g.g.g.g.g.g.g.g.g.g.g.g.g.g.g.g.g.g.g.g.g.g.g.} ] ] { g.g.g.g.S S #.,. .V X.o.8 > * 1 ",
"* * * x.x.x.j.<.<.<.S S g.g.g.g.g.g.g.g.g.g.g.g.g.g.g.g.g.g.g.g.g.g.g.g.g.g.g.{ ' _ _ ' } g.g.g.S S #.<...V ..X.2 * * 1 ",
"* * * x.x.x.j.<.<.<.S S g.g.g.g.g.g.g.g.g.g.g.g.g.g.g.g.g.g.g.g.g.g.g.g.g.g.g.] _ ` ` _ ] g.g.g.S S #.X.M n n n > * * 1 ",
"* * * x.x.l.h.<.<.<.S S g.g.g.g.g.g.g.g.g.g.g.g.g.g.g.g.g.g.g.g.g.g.g.g.g.g.g.] _ ` ` _ ] g.g.g.S S o. .M n x x > * * 1 ",
"* * * x.z.<.<.<.<.<.S S g.g.g.g.g.g.g.g.g.g.g.g.g.g.g.g.g.g.g.g.g.g.g.g.g.g.g.| ' _ _ ' { g.g.g.S S n n n n > * * * * 1 ",
"* * * x.z.<.<.<.<.<.S S g.g.g.g.g.g.g.g.g.g.g.g.g.g.g.g.g.g.g.g.g.g.g.g.g.g.g.g.{ ] ] | g.g.g.g.S S x x x x > * * * * 1 ",
"* * * x.z.<.<.<.<.<.S S g.g.g.g.g.g.g.g.g.g.g.g.g.g.g.g.g.g.g.g.g.g.g.g.g.g.g.g.g.g.g.g.g.g.g.g.S S O o o o & * * * * 1 ",
"* * * j.p.<.<.<.<.<.S S g.g.g.g.g.g.g.g.g.g.g.g.g.g.g.g.g.g.g.g.g.g.g.g.g.g.g.g.g.g.g.g.g.g.g.g.S S O o o o $ % % % * 1 ",
"* * * <.<.<.<.<.<.<.S S g.g.g.g.g.g.g.g.g.g.g.g.g.g.g.g.g.g.g.g.g.g.g.g.g.g.g.g.g.g.g.g.g.g.g.g.S S o o o o o o o o * 1 ",
"* * * <.<.<.<.<.<.<.S S g.g.g.g.g.g.g.g.g.g.g.g.g.g.g.g.g.g.g.g.g.g.g.g.g.g.g.g.g.g.g.g.g.g.g.g.S S o o o o o o o o @ ; ",
"* * * <.<.<.<.<.<.<.S S g.g.g.g.g.g.g.g.g.g.g.g.g.g.g.g.g.g.g.g.g.g.g.g.g.g.g.g.g.g.g.g.g.g.g.g.S S O o o o o o o o o # ",
"* * * $.$.$.$.$.%.<.S S g.g.g.g.g.g.g.g.g.g.g.g.g.g.g.g.g.g.g.g.g.g.g.g.g.g.g.g.g.g.g.g.g.g.g.g.S S e @ o o o o o o o # ",
"* * * X.X.X.X.X.#.<.S S g.g.g.g.g.g.g.g.g.g.g.g.g.g.g.g.g.g.g.g.g.g.g.g.g.g.g.g.g.g.g.g.g.g.g.g.S S Y * O o o o o o o # ",
"* * * B V %.#.X.#.<.S S g.g.g.6.6.6.6.6.6.6.6.6.6.6.6.6.6.6.6.6.6.6.6.6.6.6.6.6.6.6.6.6.6.g.g.g.S S +.( ! Q - @ o o o # ",
"* * * n M <.>.X.#.<.S S g.g.g.6.6.6.6.6.6.6.6.6.6.6.6.6.6.6.6.6.6.6.6.6.6.6.6.6.6.6.6.6.6.g.g.g.S S <.<.<.<.7 * o o o # ",
"* * * B C @.#.>.%.@.S S g.g.g.g.g.g.g.g.g.g.g.g.g.g.g.g.g.g.g.g.g.g.g.g.g.g.g.g.g.g.g.g.g.g.g.g.S S j.j.4.<.O.O.4 % o # ",
"* * * V C X.@.<.%.X.S S g.g.g.g.g.g.g.g.g.g.g.g.g.g.g.g.g.g.g.g.g.g.g.g.g.g.g.g.g.g.g.g.g.g.g.g.S S x.x.4.<.<.<.7 * o # ",
"* * * 8 0 C C V V C S S g.g.g.g.g.g.g.g.g.g.g.g.g.g.g.g.g.g.g.g.g.g.g.g.g.g.g.g.g.g.g.g.g.g.g.g.S S 4.4.1.<.<.<.7 * % : ",
"* * * * 2 V B n M V S S g.g.g.g.g.g.g.g.g.g.g.g.g.g.g.g.g.g.g.g.g.g.g.g.g.g.g.g.g.g.g.g.g.g.g.g.S S <.<.<.<.<.<.7 * * 1 ",
"* * * * * 2 2 > , 2 S S g.g.g.g.g.g.g.g.g.g.g.g.g.g.g.g.g.g.g.g.g.g.g.g.g.g.g.g.g.g.g.g.g.g.g.g.S S <.<.<.<.@.o.2 * * 1 ",
"* * * * * * * * * * S S g.g.g.g.g.g.g.g.g.g.g.g.g.g.g.g.g.g.g.g.g.g.g.g.g.g.g.g.g.g.g.g.g.g.g.g.S S <.<.<.<.o.X.2 * * 1 ",
"* * * * * * * * * * S S g.g.g.g.g.g.g.g.g.g.g.g.g.g.g.g.g.g.g.g.g.g.g.g.g.g.g.g.g.g.g.g.g.g.g.g.S S <.<.@.X.m n > * * 1 ",
"* * * * * * * * * * S S g.g.g.g.g.g.g.g.g.g.g.g.g.g.g.g.g.g.g.g.g.g.g.g.g.g.g.g.g.g.g.g.g.g.g.g.S S <.,.o. .v x > * * 1 ",
"* * * * * * * * * * S S g.g.g.g.g.g.g.g.g.g.g.g.g.g.g.g.g.g.g.g.g.g.g.g.g.g.g.g.g.g.g.g.g.g.g.g.S S #.X.M n > * * * * 1 ",
"* % % % % * * * * * S S g.g.g.g.g.g.g.g.g.g.g.g.g.g.g.g.g.g.g.g.g.g.g.g.g.g.g.g.g.g.g.g.g.g.g.g.S S o.Z M n > * * * * 1 ",
"* o o o o * * * * * S S g.g.g.g.g.g.g.g.g.g.g.g.g.g.g.g.g.g.g.g.g.g.g.g.g.g.g.g.g.g.g.g.g.g.g.g.S S B n n n > * * * * 1 ",
"@ o o o o @ % * * * A S S S S S S S S S S S S S S S S S S S S S S S S S S S S S S S S S S S S S S D B n j d = * $ @ @ ; ",
"o o o o o o O * * * q X                                                                         . s M n 6 * * * o o o # ",
"o o o o o o O * * * u b / @.@.@. .C l d * * o o o o o O @ % * * * r c W ( k d d h b N  .Z C ..@.^ c k d 5 * $ @ o o o # ",
"o o o o o o O * * * * * y n n n n n > * * * o o o o o o o @ * * * * * * * * * * * * 8 V B n n n y * * * * * o o o o o # ",
"o o o o o o o @ $ * * * 6 y y y y y = * @ @ o o o o o o o O @ % * * * * * * * * * * 2 g f y y y 6 * * * * * o o o o o # ",
"o o o o o o o o O * * * * * * * * * * * o o o o o o o o o o o @ * * * * * * * * * * * * * * * * * * * * * * o o o o o # "
};
