/* XPM */
static char *_81ad031bf03468dd6912b37f52bafffKLLOL7sguOPtAf8d[] = {
/* columns rows colors chars-per-pixel */
"60 60 153 2 ",
"   c #225500",
".  c #225803",
"X  c #225904",
"o  c #225C07",
"O  c #225D08",
"+  c #2F5A0C",
"@  c #2D5E0E",
"#  c #22610B",
"$  c #22620C",
"%  c #22640E",
"&  c #226610",
"*  c #266615",
"=  c #2A6413",
"-  c #2F6316",
";  c #2F6517",
":  c #2A661A",
">  c #2C671C",
",  c #2A6A1A",
"<  c #2F691A",
"1  c #2F6A1F",
"2  c #2D6C1C",
"3  c #376419",
"4  c #336B1F",
"5  c #2E6620",
"6  c #376020",
"7  c #336626",
"8  c #326923",
"9  c #336E23",
"0  c #326924",
"q  c #336E24",
"w  c #376A2A",
"e  c #377327",
"r  c #3C6630",
"t  c #3D6C31",
"y  c #42612C",
"u  c #446A2A",
"i  c #42742E",
"p  c #426C36",
"a  c #4C6F35",
"s  c #44663B",
"d  c #436D38",
"f  c #476E39",
"g  c #427035",
"h  c #447736",
"j  c #4C7333",
"k  c #427933",
"l  c #46713B",
"z  c #48723D",
"x  c #4C6645",
"c  c #4A6C41",
"v  c #4C6E43",
"b  c #4E6848",
"n  c #51664B",
"m  c #516B4A",
"M  c #53684D",
"N  c #4E7943",
"B  c #577D41",
"V  c #517348",
"C  c #55774C",
"Z  c #556650",
"A  c #5E665B",
"S  c #577051",
"D  c #5B7555",
"F  c #616B5F",
"G  c #617B5B",
"H  c gray40",
"J  c #646D63",
"K  c gray42",
"L  c gray43",
"P  c #6C756A",
"I  c #6C7D68",
"U  c #707E6D",
"Y  c #727272",
"T  c #777777",
"R  c #7B7B7B",
"E  c gray49",
"W  c #4C803F",
"Q  c #558049",
"!  c #5E8353",
"~  c #5E8453",
"^  c #5F8156",
"/  c #62824D",
"(  c #668055",
")  c #628C57",
"_  c #63855A",
"`  c #66865B",
"'  c #66885D",
"]  c #6B8363",
"[  c #6D8667",
"{  c #6E8C67",
"}  c #6E8868",
"|  c #778A6A",
" . c #778D6C",
".. c #6C9362",
"X. c #77956A",
"o. c #77996E",
"O. c #748070",
"+. c #798675",
"@. c #788D72",
"#. c #779070",
"$. c #80887D",
"%. c #809579",
"&. c #88A177",
"*. c #82A07A",
"=. c #838383",
"-. c #848484",
";. c #888888",
":. c #8E8E8E",
">. c #889983",
",. c #8C9E88",
"<. c #909090",
"1. c #979797",
"2. c #979C97",
"3. c gray60",
"4. c gray61",
"5. c #8CA080",
"6. c #8CA685",
"7. c #93A984",
"8. c #91A28C",
"9. c #99A296",
"0. c #96AD91",
"q. c #A1B39D",
"w. c #A6B09F",
"e. c gray63",
"r. c #A2A5A0",
"t. c #A4A4A4",
"y. c #A7A8A7",
"u. c #AAAAAA",
"i. c #AEAEAE",
"p. c #AEB5AA",
"a. c #ACBAA9",
"s. c #B2B2B2",
"d. c #B7B7B7",
"f. c #B6BBB5",
"g. c #BBBBBB",
"h. c gray74",
"j. c #B7C3B3",
"k. c #B6C0B5",
"l. c #BBC0BA",
"z. c #BFC0BF",
"x. c #C1C2C1",
"c. c #C1C6C0",
"v. c #C5C6C5",
"b. c #C7C8C7",
"n. c #C8C9C8",
"m. c #CCCDCC",
"M. c #D0D1D0",
"N. c #D7D7D7",
"B. c gray85",
"V. c #DDDDDD",
"C. c #E1E2E1",
"Z. c #E5E6E5",
"A. c #EEEEEE",
/* pixels */
"          & & & & & & & & & & & & & & & & & & & & $                   $ & & & & & & & & & & & & & & X                 + ",
"          & & & & & & & & & & & & & & & % % & & & $               X X $ & & & & & & & & & & & & & & # X               + ",
"          & & & & & & & & & & & & & & & % & % % & $               O & & & & & & & & & & & & & & & & & & X             + ",
"O     O O & & & k o.o.o.o.o.o.o.o.o.o.o.' ' ' ' ' ` ( a   u ( ( ( ` ' ' ' ' ' ' ' ' ' ' ' ' ' ' ' ' ' ' 4 O O O       + ",
"&     & & & & & ) m.m.m.m.m.m.m.m.m.m.m.u.u.u.u.u.u.u.|   ( u.u.u.u.u.u.u.u.u.u.u.u.u.u.u.u.u.u.u.u.u.u.h & & &       + ",
"& # O & & & k 6.q.m.m.m.m.m.m.m.V.C.C.C.N.N.N.N.N.m.z.p.5.w.z.z.z.z.z.M.N.x.z.z.z.z.z.z.z.z.z.z.z.z.s.u.>.#., & # O   + ",
"& & & & & & W m.m.m.m.m.m.m.m.m.Z.A.A.A.A.A.A.A.A.Z.m.m.m.m.m.m.m.m.m.Z.A.M.m.m.m.m.m.m.m.m.m.m.m.m.d.u.u.u.q & & &   + ",
"& & & & 2 q.a.m.m.m.m.m.B.Z.N.m.M.N.N.N.N.N.N.N.N.M.m.m.m.m.m.m.m.m.m.h.g.s.s.s.s.s.s.s.s.s.s.s.s.s.i.u.u.u.>.>.q & $ ; ",
"& & & & e m.m.m.m.m.m.m.V.A.B.m.m.m.m.m.m.m.m.m.m.m.m.m.m.m.m.m.m.m.m.s.u.u.u.u.u.u.u.u.u.u.u.u.u.u.u.u.u.u.u.u.q & & < ",
"  % & & e m.m.m.m.m.h.i.z.M.m.m.m.m.m.m.m.m.m.m.m.m.m.m.m.m.m.m.m.g.i.i.u.u.u.u.u.u.u.u.u.u.u.u.u.u.u.u.u.u.u.u.9.9.& < ",
"  % & & e m.m.m.m.m.g.u.g.m.m.m.m.m.m.m.m.m.m.m.m.m.m.m.m.m.m.m.m.d.u.u.u.u.u.u.u.u.u.u.u.u.u.u.u.u.u.u.u.u.u.u.u.u.& < ",
"            j m.m.m.m.m.g.u.h.m.m.m.m.m.m.m.m.m.m.m.m.m.m.g.u.u.u.u.u.u.u.u.u.u.u.u.u.u.u.u.u.u.u.u.u.u.u.u.u.u.u.u.& < ",
"            j m.m.m.m.m.g.u.h.m.m.m.m.m.m.m.m.m.m.m.m.m.m.g.u.u.u.u.u.u.u.u.u.u.u.u.u.u.u.u.u.u.u.u.u.u.u.u.u.u.u.u.& < ",
"                / m.m.m.m.m.d.u.u.u.b.m.m.m.m.m.m.c.u.u.u.u.u.u.u.u.u.u.u.u.u.u.u.u.u.u.u.u.u.u.u.u.u.u.u.u.u.u.:.;.& < ",
"                B k.k.k.c.m.g.i.i.i.c.b.m.m.m.m.m.c.u.u.u.u.u.u.u.u.u.u.u.u.u.u.u.u.u.u.u.u.u.u.u.u.u.u.u.u.u.u.:.;.& < ",
"            X & & & & & o.m.m.m.m.m.i.u.m.m.m.m.m.c.u.u.u.u.u.u.u.u.u.u.u.u.u.u.u.u.u.u.u.u.u.u.u.u.u.u.u.u.u.u.:.;.& < ",
"X X X X X X o & & & & & ) q.q.q.c.m.d.s.c.c.c.c.m.c.u.u.u.u.u.u.u.u.u.u.u.u.u.u.u.u.u.u.u.u.u.u.u.u.u.u.u.u.u.u.:.;.& < ",
"& & & & & & & & & & & & & & & & q.m.m.m.u.u.u.i.m.c.u.u.u.u.u.u.u.u.u.u.u.u.u.u.u.u.u.u.u.u.u.u.u.u.u.u.u.u.u.u.:.;.& < ",
"& & & & 2 ) ) ) W & & & & & & & ..6.f.z.u.u.1.4.z.g.u.u.u.u.u.u.u.u.u.u.u.u.u.u.u.u.u.u.u.u.u.u.u.u.u.u.u.u.u.u.=.R & < ",
"& & & & e m.m.m.6.& & & & & & & & & 9.u.u.u.T E u.u.u.u.u.u.u.u.u.u.u.u.u.u.u.u.u.u.u.u.u.u.u.u.u.u.u.u.u.u.u.u.L H & < ",
"& & & o.*.m.M.V.j.o.o.o.o.o.k & & & ! ' ' ' <.<.<.1.u.u.u.u.u.u.u.u.u.u.u.u.u.u.u.u.u.u.u.u.u.u.u.u.u.u.u.u.3.3.Y L & < ",
"& & & m.m.m.N.A.C.m.m.m.m.m.) & & & & & & & u.t.T =.u.u.u.u.u.u.u.u.u.u.u.u.u.u.u.u.u.u.u.u.u.u.u.u.u.u.u.u.:.;.R T & < ",
"& & & m.m.m.M.V.N.m.m.m.m.m.0.o.o.o.2 & & & ' _ v D ;.:.3.e.u.u.u.u.u.u.u.u.u.u.u.u.u.u.u.u.u.u.u.u.u.u.u.u.E T :.<.& < ",
"& & & m.m.m.m.m.m.m.m.m.m.m.m.m.m.m.e & & & & & & 7 H Y ;.3.u.u.u.u.u.u.u.u.u.u.u.u.u.u.u.u.u.u.u.u.u.u.u.u.L H e.u.& < ",
"& & & m.m.m.m.m.m.m.x.d.x.m.m.m.m.m.0.6.& & & & & * r G 4.:.=.:.1.e.u.u.u.u.u.u.u.u.u.u.u.u.u.u.u.u.u.u.3.1.L H -.;.& < ",
"& & & m.m.m.m.m.m.m.g.u.g.m.m.m.m.m.m.m.& & & & & & & Q u.;.H R ;.4.u.u.u.u.u.u.u.u.u.u.u.u.u.u.u.u.u.u.<.;.K H T T & < ",
"& & & m.m.m.v.s.s.s.i.u.i.s.s.s.s.s.b.m.>.>.& & & & & 9 h } 3.=.L E -.:.<.t.u.u.u.u.u.u.u.u.u.u.u.u.3.<.T L <.3.Y K & < ",
"& & & m.m.m.c.u.u.u.u.u.u.u.u.u.u.u.b.m.u.u.& & & & & & & ' u.=.H Y T =.;.t.u.u.u.u.u.u.u.u.u.u.u.u.1.;.L H e.u.L H & < ",
"& & & m.m.m.c.u.u.u.u.u.u.u.u.u.u.u.i.i.u.u.9.9.9.#.& & & , 9 1 : @.e.T K e.u.E =.:.:.:.:.:.-.E E E 1.t.=.T ;.:.w : & < ",
"& & & m.m.m.c.u.u.u.u.u.u.u.u.u.u.u.u.u.u.u.u.u.u.>.& & & & & & & #.u.T H e.u.T R ;.;.;.;.;.=.T T T 1.u.-.T -.;.1 & & < ",
"& & & m.m.m.c.u.u.u.u.u.u.u.u.u.u.u.u.u.u.u.u.u.u.u.u.#.& & & & & & & & & & & H L u.e.;.<.u.4.;.3.u.1.;.L H H H : & & < ",
"& & & m.m.b.x.u.u.u.u.u.u.u.u.u.u.u.u.u.u.u.u.u.u.u.u.%.q , & & & & & & & & & A J 9.2.-.:.e.3.-.1.e.:.=.L H A A : & & < ",
"& & & m.n.u.u.u.u.u.u.u.u.u.u.u.u.u.u.u.u.u.u.u.u.u.u.u.u.' & & & & & & & & & & & & w T T T T T L H H H H H : & & & & < ",
"& & & m.n.u.u.u.u.u.u.u.u.u.u.u.u.u.u.u.u.u.u.u.u.u.u.u.u.{ q , & & & & & % % & & & 0 P P P P P J A A A A A : & & & & < ",
"& & & m.n.u.u.u.u.u.u.u.u.u.u.u.u.u.u.u.u.u.u.u.u.u.u.u.u.u.u.Q & & & & &     & & & & & & & & & & & X       % & & & & < ",
"& & & c.z.u.u.u.u.u.u.u.u.u.u.u.u.u.u.u.u.u.u.u.u.u.u.u.u.e.4.N & & & $ $     $ $ & & & & & & & % $ X       # $ $ $ & < ",
"& & & u.u.u.u.u.u.u.u.u.u.u.u.u.u.u.u.u.u.u.u.u.u.u.u.u.u.<.T p & & & X           & & & & & & & O                   & < ",
"& & & u.u.u.u.u.u.u.u.u.u.u.u.u.u.u.u.u.u.u.u.u.u.u.u.t.4.+.S w & $ O .         @ ) ) ) W & & & # X                 O - ",
"& & & u.u.u.u.u.u.u.u.u.u.u.u.u.u.u.u.u.u.u.u.u.u.u.u.4.;.C & & & X             3 m.m.m.q.& & & & & X                 + ",
"& & & 3.3.3.3.3.4.u.u.u.u.u.u.u.u.u.3.3.3.3.3.3.u.t.3.:.=.V & & & # O         &.7.V.B.m.k.o.o.o.o.o.i O               + ",
"& & & ;.;.;.;.;.1.u.u.u.u.u.u.u.u.u.:.;.;.;.;.:.u.e.;.=.T v & & & & & X       A.A.A.Z.m.m.m.m.m.m.m.) & X             + ",
"& & & Y T 4.1.;.1.u.e.1.1.1.1.1.1.1.4.4.4.4.Y T =.U z l p 8 & & & & & X.5.5.5.B.B.B.N.m.m.m.m.m.x.d.,.#. .| = O       + ",
"& & & H L u.e.;.1.u.3.;.;.;.;.;.;.;.t.u.u.u.H H H Z & & & & & & & & & q.m.m.m.m.m.m.m.m.m.m.m.m.g.u.u.u.u.u.q &       + ",
"& & & Y R <.1.e.4.<.3.e.1.;.;.;.3.e.=.T T T 7 7 7 5 & & & & & & & ~ >.l.m.m.m.m.m.m.m.m.m.m.m.m.n.c.c.c.s.u.>.>.4 $   + ",
"& & & T R ;.<.u.4.;.3.u.3.;.;.;.e.u.L H H H & & & & & & & & & & & #.u.c.m.m.m.m.m.m.m.m.m.m.m.m.m.m.m.m.s.u.u.u.q &   + ",
"& & & w t R R T T R R T Y L L L T T r 7 7 7 & & & & & & & & & ~ >.r.u.c.m.m.m.m.m.m.m.m.m.m.m.m.z.s.s.s.i.u.u.u.q & $ ; ",
"& & & & 1 T Y H L T L H H H H H H H : & & & & & & & & & & & & #.u.u.u.c.m.m.m.m.m.m.m.m.m.m.m.m.g.u.u.u.u.u.u.u.q & & < ",
"& & & & & 1 1 : > 1 > : : : : : : : & & & & & & & & & & & ~ 9.r.u.u.u.i.i.b.m.m.m.m.m.m.c.i.i.i.i.u.u.u.u.u.<.:.1 & & < ",
"& & & & & & & & & & & & & & & & & & & & & & & & & & & & & ' u.u.u.u.u.u.u.b.m.m.m.m.m.m.c.u.u.u.u.u.u.u.u.u.:.;.1 & & < ",
"& & & & & & & & & & & & & & & & >.u.u.u.& & & & & & & p T =.;.4.u.u.u.u.u.u.u.u.u.u.u.u.u.u.u.u.u.u.u.u.<.;.K H : & & < ",
"& & & & & & & & & & & & , q q q 8.s.i.i.q q & & % % & d R =.:.4.t.t.t.u.u.u.u.u.u.u.u.u.u.u.u.u.u.u.u.t.:.=.F A : & & < ",
"& & & & & & & & & & & & ' u.u.u.V.A.M.m.u.u.& %   X & z ;.3.u.1.;.;.;.e.u.u.u.u.u.u.u.u.u.u.u.u.u.u.1.;.L H : & & & & < ",
"& $ $ $ $ & & & & & 9 h #.u.i.s.B.Z.m.m.u.u.$ O   . $ f =.<.4.<.<.:.;.e.u.e.e.e.e.u.u.u.u.u.u.e.e.e.:.E L H : & & & & < ",
"&         & & & & & ' u.u.u.h.m.m.m.m.m.u.u.          y T T T 1.u.1.;.e.u.:.;.;.:.u.u.u.u.u.4.;.;.;.Y H H H : & & & & < ",
"O         O $ & & & ^ 4.e.u.d.z.d.s.y.t.#.#.          6 S S S ] #.$.=.e.u.=.R R E 4.4.4.4.4.3.1.;.=.Y H n x * & # O O - ",
"            X & & & C ;.3.u.u.u.<.;.K H & &           X & & & & & S T 4.u.L H H K ;.;.;.;.;.1.u.<.T L H 7 & & &       + ",
"            X & & & g G +.<.<.<.=.R M x & &           X O $ & & & p S [ #.m x x b G I =.E R -.<.O.S m x 5 & # O       + ",
"            X & & & & & s H H H H H : & & &               O & & & & & & & & & & & & w T Y H H H s & & & & &           + ",
"              O # & & & 7 s s s s s * & O O               X O $ & & & & & & & & & & 1 v c s s s 7 & & & & &           + ",
"                X & & & & & & & & & & &                       O & & & & & & & & & & & & & & & & & & & & & &           + "
};
