/* XPM */
static char * floor_xpm[] = {
"60 60 690 2",
"  	c #955C1C",
". 	c #955814",
"+ 	c #9B5A12",
"@ 	c #995911",
"# 	c #975710",
"$ 	c #965712",
"% 	c #985913",
"& 	c #995912",
"* 	c #995910",
"= 	c #96570F",
"- 	c #945712",
"; 	c #955918",
"> 	c #935A1D",
", 	c #935B1F",
"' 	c #955D20",
") 	c #925C1F",
"! 	c #925C20",
"~ 	c #915D22",
"{ 	c #915D24",
"] 	c #905D24",
"^ 	c #925E23",
"/ 	c #925C21",
"( 	c #935C20",
"_ 	c #915B1F",
": 	c #945B1D",
"< 	c #965815",
"[ 	c #985813",
"} 	c #995A14",
"| 	c #975A17",
"1 	c #935A1A",
"2 	c #945B1C",
"3 	c #935A1B",
"4 	c #995A13",
"5 	c #975812",
"6 	c #955A16",
"7 	c #925B1E",
"8 	c #935C1E",
"9 	c #955B1C",
"0 	c #965A18",
"a 	c #9A5B14",
"b 	c #985810",
"c 	c #975810",
"d 	c #985912",
"e 	c #9A5B15",
"f 	c #985A17",
"g 	c #955A1A",
"h 	c #945C1D",
"i 	c #945D20",
"j 	c #975A14",
"k 	c #965710",
"l 	c #93550F",
"m 	c #945510",
"n 	c #975811",
"o 	c #985812",
"p 	c #9A5A11",
"q 	c #935716",
"r 	c #90581A",
"s 	c #90591E",
"t 	c #925B1F",
"u 	c #945D1F",
"v 	c #925D22",
"w 	c #8F5C23",
"x 	c #8F5C24",
"y 	c #905C23",
"z 	c #925D21",
"A 	c #915B20",
"B 	c #945C1F",
"C 	c #93591A",
"D 	c #975A16",
"E 	c #935611",
"F 	c #945611",
"G 	c #965914",
"H 	c #955A19",
"I 	c #92591C",
"J 	c #965A19",
"K 	c #995A12",
"L 	c #945711",
"M 	c #945916",
"N 	c #955C1E",
"O 	c #975C1B",
"P 	c #955916",
"Q 	c #945610",
"R 	c #92540F",
"S 	c #92550F",
"T 	c #95560F",
"U 	c #975914",
"V 	c #945A1B",
"W 	c #935712",
"X 	c #965711",
"Y 	c #955611",
"Z 	c #9A5A14",
"` 	c #985B17",
" .	c #925819",
"..	c #91591C",
"+.	c #905A1D",
"@.	c #925A1D",
"#.	c #935B1C",
"$.	c #935B1D",
"%.	c #915C22",
"&.	c #905C20",
"*.	c #945C1E",
"=.	c #92591A",
"-.	c #955813",
";.	c #955712",
">.	c #93591B",
",.	c #935B1E",
"'.	c #945A19",
").	c #965811",
"!.	c #925716",
"~.	c #945715",
"{.	c #955610",
"].	c #91540F",
"^.	c #8F520E",
"/.	c #90530E",
"(.	c #91530D",
"_.	c #94560E",
":.	c #965A17",
"<.	c #945B1B",
"[.	c #955B1A",
"}.	c #955A17",
"|.	c #935613",
"1.	c #915410",
"2.	c #975912",
"3.	c #965814",
"4.	c #965917",
"5.	c #915819",
"6.	c #915A1C",
"7.	c #955917",
"8.	c #945917",
"9.	c #925A1C",
"0.	c #8F5A20",
"a.	c #8F5D24",
"b.	c #915A1D",
"c.	c #935918",
"d.	c #94550E",
"e.	c #915616",
"f.	c #92591B",
"g.	c #915A1F",
"h.	c #935C1F",
"i.	c #935715",
"j.	c #935612",
"k.	c #8E5516",
"l.	c #90581C",
"m.	c #8F591D",
"n.	c #8F591C",
"o.	c #925818",
"p.	c #935511",
"q.	c #985811",
"r.	c #935510",
"s.	c #8F520D",
"t.	c #8E520D",
"u.	c #94550F",
"v.	c #915715",
"w.	c #925B1D",
"x.	c #915717",
"y.	c #935815",
"z.	c #925512",
"A.	c #915614",
"B.	c #945918",
"C.	c #955A1B",
"D.	c #90591D",
"E.	c #8E5619",
"F.	c #925715",
"G.	c #925513",
"H.	c #915818",
"I.	c #8F591E",
"J.	c #915D23",
"K.	c #905C22",
"L.	c #93550E",
"M.	c #905516",
"N.	c #90581B",
"O.	c #915A1E",
"P.	c #905513",
"Q.	c #915514",
"R.	c #905718",
"S.	c #90591C",
"T.	c #925613",
"U.	c #8F530F",
"V.	c #8F530E",
"W.	c #8E530F",
"X.	c #8E510D",
"Y.	c #8C500D",
"Z.	c #8A4F0C",
"`.	c #8D510D",
" +	c #925410",
".+	c #905A1E",
"++	c #935817",
"@+	c #905616",
"#+	c #925717",
"$+	c #94591A",
"%+	c #91591D",
"&+	c #8F5515",
"*+	c #915512",
"=+	c #90530D",
"-+	c #935816",
";+	c #8F5C22",
">+	c #8E5C24",
",+	c #8F5D25",
"'+	c #8F591F",
")+	c #935819",
"!+	c #925511",
"~+	c #8F571A",
"{+	c #8F5717",
"]+	c #91581A",
"^+	c #905615",
"/+	c #8F5311",
"(+	c #8E520E",
"_+	c #8F5310",
":+	c #90540F",
"<+	c #8E510E",
"[+	c #90530F",
"}+	c #915511",
"|+	c #8F5718",
"1+	c #8F5A1F",
"2+	c #8F581C",
"3+	c #915B1E",
"4+	c #8F5616",
"5+	c #905411",
"6+	c #915411",
"7+	c #8D5517",
"8+	c #8E5B21",
"9+	c #905B20",
"0+	c #905614",
"a+	c #905412",
"b+	c #8E5413",
"c+	c #8E581B",
"d+	c #905A1F",
"e+	c #8E591F",
"f+	c #8F5A1E",
"g+	c #8E581C",
"h+	c #8F591B",
"i+	c #8D5310",
"j+	c #8C510F",
"k+	c #8E520F",
"l+	c #8E5310",
"m+	c #8C510E",
"n+	c #8E510F",
"o+	c #8F5618",
"p+	c #91591B",
"q+	c #8E591E",
"r+	c #925817",
"s+	c #905413",
"t+	c #8C500E",
"u+	c #8D520F",
"v+	c #8C5211",
"w+	c #8C5519",
"x+	c #8B571D",
"y+	c #8C5921",
"z+	c #8D5B23",
"A+	c #8D5C23",
"B+	c #8E5C23",
"C+	c #905B21",
"D+	c #8E571D",
"E+	c #91591A",
"F+	c #8F5617",
"G+	c #8F5719",
"H+	c #8E591D",
"I+	c #8E5920",
"J+	c #8D5A21",
"K+	c #8E5A21",
"L+	c #8E5A1F",
"M+	c #8D591E",
"N+	c #8D571B",
"O+	c #8C5418",
"P+	c #8D5413",
"Q+	c #8B510E",
"R+	c #8B500E",
"S+	c #8C500C",
"T+	c #8D510C",
"U+	c #8D5212",
"V+	c #91581B",
"W+	c #8C5417",
"X+	c #8F5414",
"Y+	c #8C520F",
"Z+	c #8B5312",
"`+	c #8C5416",
" @	c #8F5B22",
".@	c #8E581E",
"+@	c #8D591F",
"@@	c #8E5B20",
"#@	c #8F5A21",
"$@	c #8D5A20",
"%@	c #8D5B22",
"&@	c #8C5A22",
"*@	c #8D581E",
"=@	c #8D571D",
"-@	c #8E561A",
";@	c #8B5416",
">@	c #8B5211",
",@	c #8A500E",
"'@	c #894E0C",
")@	c #8B4F0B",
"!@	c #8B500D",
"~@	c #8B5313",
"{@	c #8E571B",
"]@	c #8C5820",
"^@	c #945816",
"/@	c #8F581B",
"(@	c #8D5619",
"_@	c #8E5210",
":@	c #8D520E",
"<@	c #8E5211",
"[@	c #8B5316",
"}@	c #8B551A",
"|@	c #8C571D",
"1@	c #8C581F",
"2@	c #8C5920",
"3@	c #8C5A21",
"4@	c #8E5A20",
"5@	c #8D581D",
"6@	c #8F5B20",
"7@	c #8E5A22",
"8@	c #8E5B22",
"9@	c #8C5A23",
"0@	c #8D5921",
"a@	c #8C581E",
"b@	c #8C561B",
"c@	c #8C5518",
"d@	c #8B5214",
"e@	c #8A5011",
"f@	c #8A500D",
"g@	c #894F0D",
"h@	c #8A500C",
"i@	c #8B500C",
"j@	c #8C5922",
"k@	c #915513",
"l@	c #8B5110",
"m@	c #8D5211",
"n@	c #8C5415",
"o@	c #8A5419",
"p@	c #8B571E",
"q@	c #8C581D",
"r@	c #8C571C",
"s@	c #8E5B23",
"t@	c #8C5B23",
"u@	c #8D571C",
"v@	c #8B5519",
"w@	c #8B5417",
"x@	c #8C5212",
"y@	c #8A4F0D",
"z@	c #8B5213",
"A@	c #8E5517",
"B@	c #945815",
"C@	c #945714",
"D@	c #8E581D",
"E@	c #8D571A",
"F@	c #885011",
"G@	c #895011",
"H@	c #89551B",
"I@	c #8C551A",
"J@	c #8E571C",
"K@	c #8E571A",
"L@	c #8E5719",
"M@	c #8B5820",
"N@	c #8B5A22",
"O@	c #8B561D",
"P@	c #8B551B",
"Q@	c #8A551B",
"R@	c #8B5418",
"S@	c #8A5313",
"T@	c #8B5210",
"U@	c #88500F",
"V@	c #8A510F",
"W@	c #8A5111",
"X@	c #8B5317",
"Y@	c #8C571E",
"Z@	c #8B5A23",
"`@	c #915817",
" #	c #8A5317",
".#	c #895215",
"+#	c #8C561A",
"@#	c #885216",
"##	c #895216",
"$#	c #8C561C",
"%#	c #8B561C",
"&#	c #8D5920",
"*#	c #8B581F",
"=#	c #8A5519",
"-#	c #8B561B",
";#	c #8A561C",
">#	c #8A5318",
",#	c #8A5316",
"'#	c #8E5618",
")#	c #8F5920",
"!#	c #8B561A",
"~#	c #8A561D",
"{#	c #895114",
"]#	c #885214",
"^#	c #8A561E",
"/#	c #8A571E",
"(#	c #8B581E",
"_#	c #8C571B",
":#	c #8B571F",
"<#	c #8C5B24",
"[#	c #8B5B24",
"}#	c #90571A",
"|#	c #8A571D",
"1#	c #885319",
"2#	c #875115",
"3#	c #895012",
"4#	c #885215",
"5#	c #8A551A",
"6#	c #89561E",
"7#	c #89551D",
"8#	c #8B5314",
"9#	c #8D5518",
"0#	c #8B5922",
"a#	c #8B5921",
"b#	c #8C5C24",
"c#	c #8A551C",
"d#	c #895419",
"e#	c #875114",
"f#	c #874F10",
"g#	c #864E0F",
"h#	c #874F12",
"i#	c #885218",
"j#	c #89551C",
"k#	c #89561F",
"l#	c #8B5315",
"m#	c #8A5110",
"n#	c #8C5110",
"o#	c #8B5923",
"p#	c #854D0D",
"q#	c #874E0E",
"r#	c #885013",
"s#	c #895319",
"t#	c #89561D",
"u#	c #89551E",
"v#	c #89541B",
"w#	c #895115",
"x#	c #8A5417",
"y#	c #8A5215",
"z#	c #8F5517",
"A#	c #8A5921",
"B#	c #875014",
"C#	c #864D0E",
"D#	c #894F0F",
"E#	c #885014",
"F#	c #89541A",
"G#	c #8A551D",
"H#	c #875116",
"I#	c #885114",
"J#	c #875318",
"K#	c #895318",
"L#	c #894F0E",
"M#	c #8A5113",
"N#	c #8A581F",
"O#	c #8A5315",
"P#	c #8F5413",
"Q#	c #8E5312",
"R#	c #8C5314",
"S#	c #885217",
"T#	c #874F11",
"U#	c #875215",
"V#	c #88531B",
"W#	c #89551A",
"X#	c #885116",
"Y#	c #875217",
"Z#	c #88531A",
"`#	c #8A5112",
" $	c #89500E",
".$	c #8A5418",
"+$	c #895113",
"@$	c #874F0D",
"#$	c #884F10",
"$$	c #895213",
"%$	c #8F581A",
"&$	c #8D5311",
"*$	c #8B5212",
"=$	c #8D5617",
"-$	c #885219",
";$	c #88551C",
">$	c #89571E",
",$	c #885112",
"'$	c #8A5214",
")$	c #8A561B",
"!$	c #884E0B",
"~$	c #894E0B",
"{$	c #89500F",
"]$	c #8D5415",
"^$	c #8D5414",
"/$	c #895013",
"($	c #8A5216",
"_$	c #88541B",
":$	c #89571F",
"<$	c #8A571F",
"[$	c #885318",
"}$	c #8A541A",
"|$	c #885115",
"1$	c #884E0C",
"2$	c #8D510B",
"3$	c #8B4F0C",
"4$	c #884F11",
"5$	c #895317",
"6$	c #8A5720",
"7$	c #895821",
"8$	c #8A5922",
"9$	c #8A5821",
"0$	c #8A5820",
"a$	c #895820",
"b$	c #8A5822",
"c$	c #8A4F0B",
"d$	c #8E510C",
"e$	c #8D581F",
"f$	c #8B5A24",
"g$	c #895720",
"h$	c #8A5923",
"i$	c #895214",
"j$	c #895010",
"k$	c #8D5A22",
"l$	c #8D5B21",
"m$	c #895217",
"n$	c #89531A",
"o$	c #88541A",
"p$	c #875319",
"q$	c #875218",
"r$	c #8B5821",
"s$	c #884F0F",
"t$	c #8F520C",
"u$	c #8D5B24",
"v$	c #8A5A22",
"w$	c #88551D",
"x$	c #865014",
"y$	c #864F13",
"z$	c #885117",
"A$	c #8B571C",
"B$	c #90530C",
"C$	c #8D5C24",
"D$	c #88561D",
"E$	c #89581F",
"F$	c #864E11",
"G$	c #864F14",
"H$	c #8A561F",
"I$	c #8A541B",
"J$	c #865116",
"K$	c #865015",
"L$	c #875117",
"M$	c #8D510F",
"N$	c #88541C",
"O$	c #885012",
"P$	c #8C5312",
"Q$	c #905511",
"R$	c #91530E",
"S$	c #854E0D",
"T$	c #874E0F",
"U$	c #925612",
"V$	c #885317",
"W$	c #88571E",
"X$	c #88551B",
"Y$	c #875012",
"Z$	c #864D0C",
"`$	c #864D0B",
" %	c #884F0E",
".%	c #8C5315",
"+%	c #8D561A",
"@%	c #8F5516",
"#%	c #8F5B21",
"$%	c #875015",
"%%	c #895418",
"&%	c #87531A",
"*%	c #885419",
"=%	c #89541C",
"-%	c #885113",
";%	c #874E0C",
">%	c #874E0D",
",%	c #8C591F",
"'%	c #8A5211",
")%	c #885010",
"!%	c #864F12",
"~%	c #8A5A23",
"{%	c #895218",
"]%	c #8A5213",
"^%	c #8A510E",
"/%	c #885316",
"(%	c #89561C",
"_%	c #854C0C",
":%	c #844C0B",
"<%	c #854C0B",
"[%	c #854E0F",
"}%	c #8B5419",
"|%	c #8D5416",
"1%	c #8E5518",
"2%	c #884F0D",
"3%	c #854D0C",
"4%	c #854B0A",
"5%	c #854B09",
"6%	c #864C0A",
"7%	c #874F13",
"8%	c #8B561E",
"9%	c #8E5417",
"0%	c #8F5B23",
"a%	c #864C0B",
"b%	c #915412",
"c%	c #8B520F",
"d%	c #874D0B",
"e%	c #8B591F",
"f%	c #8D5516",
"g%	c #8B500F",
"h%	c #8A5012",
"i%	c #874E0B",
"j%	c #884D0B",
"k%	c #864D0D",
"l%	c #875013",
"m%	c #884E0F",
"n%	c #884E0E",
"o%	c #895316",
"p%	c #8B5920",
"q%	c #8D5312",
"r%	c #8E5415",
"s%	c #905719",
"t%	c #8A500F",
"u%	c #874F0F",
"v%	c #8D5519",
"w%	c #8A5212",
"x%	c #884D0A",
"y%	c #8C5213",
"z%	c #8D5417",
"A%	c #8D581C",
"B%	c #864E0D",
"C%	c #8C5419",
"D%	c #8C5516",
"E%	c #8E5414",
"F%	c #8C5210",
"G%	c #884E0D",
"H%	c #894F0C",
"I%	c #8F5411",
"J%	c #8D510E",
"K%	c #8B5111",
"L%	c #8C5313",
"M%	c #8D530F",
"N%	c #8A5114",
"O%	c #8F5514",
"P%	c #884D0C",
"Q%	c #8E5412",
"R%	c #8D5515",
"S%	c #8B510D",
"T%	c #8A4E0C",
"U%	c #8D5412",
"V%	c #8B510F",
"W%	c #895110",
"X%	c #874C0A",
"Y%	c #8A5010",
"Z%	c #874D0A",
"`%	c #905617",
" &	c #8D5210",
".&	c #8C510D",
"+&	c #8B5010",
"@&	c #8D520D",
"#&	c #8D561C",
"$&	c #8F5615",
"%&	c #8F5412",
"&&	c #8E5416",
"*&	c #8B5516",
"=&	c #8E5519",
"-&	c #8E5411",
";&	c #8B5518",
">&	c #8D5313",
",&	c #8B5517",
"'&	c #8D5618",
")&	c #8B5215",
"!&	c #8C5619",
"~&	c #8F571B",
"{&	c #8E5515",
"]&	c #915C21",
"^&	c #8C5B22",
"/&	c #8E5D24",
"(&	c #905C24",
"_&	c #915E24",
":&	c #905B1F",
"<&	c #8C5517",
"[&	c #8B5414",
"}&	c #8F581D",
"|&	c #925614",
"1&	c #905410",
"2&	c #8E5311",
"3&	c #905A20",
"4&	c #925510",
"5&	c #96570E",
"6&	c #905D23",
"7&	c #8E581F",
"8&	c #94550D",
"9&	c #935818",
"0&	c #935917",
"a&	c #91530C",
"b&	c #8D561B",
"c&	c #965B19",
"d&	c #8F5619",
"e&	c #92540E",
"f&	c #915615",
"g&	c #925611",
"  . + @ # @ $ % % & * = * - ; > , ' ) ! ~ { ] ^ / ) ( _ : ; < [ } | 1 2 3 | 4 # 5 6 2 7 8 9 0 a + b @ @ b c d e f g h i ",
"1 j * k l m d n $ o n p % q r s t u 7 ( v w x y z A B > C D E F G H > 7 I J K = L M 9 8 N O P $ Q R S R T c c 5 U H 2 , ",
"V M W E X X Y c X @ @ Z `  ...+.@.#.3 $.A %.] x %.&.*.=.P -.m ;.q >.,.) $.'.U T ).!.2 7 @.1 ~.X {.].^./.(.T _.R - :.<.,.",
"N [.}.|.U 5 {.l 1.2.3.4.5.@.*.6.C 7.4.8.9.0.w a.w / b.c.- d.{.-.e.f.g.h.7 1 i.E j.k.l.m.n.o.~.p.q.r./.s.t./.l u.j.v.=.w.",
"_ @.=.x.y.. j.z.A.7.B.C.D.,.b.E.F.W E G.H.I.J.{ x K.I.x.Q L.l E M.N.O.h.t : o.P.Q.R.S.m.f.8.T.U.V.W.X.Y.Z.`.R  +z.A.H.@.",
") .+D.f.o.++@+#+$+f.> O..+%+=.&+*+R =+p.-+b.;+>+,+w '+)+$ Q l !+&+~+O.g._ 7 N.{+H.]+m.+.f.^+/+W.(+_+:+<+Y.X.[+1.}+P.|++.",
"1+t O.D.S.V 1 r 2+7 3+t ,.~+4+5+(+(.R 6+7+D.8+>+>+w 9+]+0+6+a+b+7+c+s 1+d+e+f+g+h+D.t s N.!.i+W.j+k+l+m+n+/.]./. +a+o+s ",
"7 O.,.7 3+$.2 p+..O._ q+..r+s+].t+u+v+&+w+x+y+z+A+B+C+D+E+F+5.G+S.H+e+I+I+J+K+I+L+'+1+M+N+O+P+i+U.Q+R+u+u+<+(+S+T+U+r q+",
"V+]+p+%+O.s 2+r p+O.7 2+W+X+U.(+Y+Z+`+w+D.1+y+z+z+ @K+.@S.g+.++@@@#@J+$@$@8+%@&@K+$@+@*@=@-@;@>@,@'@,@j+j+m+Y.)@!@~@{@]@",
"c.^@#+G+S.m./@(@~+2+m.(@X+_@!@:@<@[@}@|@1@1@2@3@3@4@.+..{@5@6@&@B+w 7@K+y+8@w 9@8@0@+@a@5@b@c@d@e@j+f@g@h@g@i@S+_@7+|@j@",
"^+-.k@e.E+n.n.N.N.2+/@`+l@k+m+m@n@o@|@1@1@p@|@a@e+q@f.]+~+r@2@s@B+B+8@$@y+8@s@t@s@3@L+.@5@u@v@w@d@x@,@y@'@'@'@g@z@b@2@&@",
"A@B@- C@F+{@D.m.b.D@E@[@F@G@z@[@o@r@p@a@x+H@I@N+J@b@K@L@K@=@M@&@t@%@K+I+2@J+&@N@&@y+1@O@P@Q@}@}@R@[@S@G@T@U@V@W@X@Y@&@Z@",
"r `@P.*+&+r D.I..+*@u@ #.# #o@H@|@q+p@D@+#@###v@$#%#b@N+r@.@M@2@M@&#2@+@Y@a@a@*#M@2@1@|@}@=#}@-#;#-#}@>#W+,# #v@|@K+t@t@",
"m.p+'#&+x.5.m.+@)#4@q@!#}@%#O@~#p@a@O@I@;@{#]#w+O@^#~#p@p@p@/#p@~#(#1@q+r@N+K@}@u@1@a@|@_#o@}@-#p@*#:#:#Y@x+Y@&#3@t@<#[#",
"e+I.n.}#f.9.I.4@K+8+1@x+x+p@p@p@|#H@1#2#3#F@4#5#^#6#^#/#/#^#7#-#}@%#*@|@+#W+d@8#9#u@a@a@5@$#-#%#p@3@0#Z@&@a#0#s@z+<#b#<#",
"d+d+.+D.@.3+1+7@s@8@K+1@a@(#a@p@c#d#e#f#g#h#i#j#/#^#6#k#/#/#j#># #w+r@O@+#l#m#n#d@E.D@a@*@|@r@a@*#&@o#N@0#a#a#&@z+t@<#<#",
"I.b.b.D.2+2+e+8@x B+J+1@p@p@:#p@c#>#h#p#q#r#s#7#^#t#7#u#6#~#v###w#x#Q@~#P@y#m#Y.m#z#u@1@a@Y@a@a@M@A#a#M@/#j#;#~#*#K+&@s@",
"S.]+5.R.F+E.g+K+s@8@I+p@O@p@p@p@;#o@B#C#D#E#F#t#6#j#7#7#u#G#s#H#I#J#H@G#c#K#F@L#L#M#w+|@p@a@Y@:#N#:#*#;#d#{#{#O#>#-#p@2@",
"{@R.@+P#Q#R#G+q+y+]@a@{@}@P@~#^#^#H@S#h#T#U#V#t#t#7#j#7#t#t#W#X#Y#Z#7#^#t#H@X#`# $3#.$%#^#/#x+;#~#p@~#o@+$q#@$L##$$$ #%$",
"-#E.4+&$n#*$=$g+2@1@%#G+;@ #F#%#~#j#Z#H#2#-$;$>$k#t#7#t#k#6#j#1#Z#j#6#/#6#t#F#.#,$'$v@;#/#~#)$Q@%#~#5#@#F@ $!$~$Z.!@{$b+",
"H+g+(@]$*$R#E.|@1@M+r@O+^$/$($o@v#j#j#_$_$7#:$<$:$6#t#k#<$:$6#7#7#6#>$>$6#>$t#F#[$>#Q@/#:#~#H@Q@%#%#}$|$T#1$Z.~$2$2$3$,@",
"1@Y@u@w+[@c@J@L+e+M+|@w+d@F@4${#5$v#t#k#6$7$8$9$0$>$6#k#a$b$A#<$k#6#6#6#6#>$6#~#j#;#^#0$0$/#;#j#7#~#P@##3#V@!@c$c$d$i@Z.",
"*@1@|@$#-#r@+@3@$@e$5@b@w@{#F@,$|$s#^#0$0#Z@f$0#7$:$k#g$8$Z@h$9$:$6#7#7#j#j#j#^#/#<$9$0#a#M@~#~#~#~#%#(@i$j$g@c$3$h@c$)@",
"I.I.|@O@a@2@k$&@l$$@+@Y@$#w+m$.#m$n$/#8$Z@[#f$8$7$g$:$a$8$Z@0#9$6#j#o$p$q$q$Z#j#<$r$N@Z@0#0$/#~#^#/#x+b@.#s$f@c$~$~$c$t$",
"u@N+%#x+e+l$B+u$t@l$4@4@1+Y@~#j#H@~#0$o#[#[#v$0$:$6#<$k#a$A#7$:$w$1#Y#x$y$x$z$v#<$0$0#N@r$<$/#~#/#p@p@A$w@F@f@Z.c$c$`.B$",
"!#w+}@|@2@%@C$b#u$8@J+2@1@*#*#0$<$6$A#Z@[#Z@9$>$7#D$6#6#6#:$E$k#w$p$2#y$F$G$S#v#t#H$6$<$j#I$H@c#~#/#:#|@}@y#G@l+`.(+X.d$",
"-#+#-#a@y+t@C$C$w 8@3@2@1@N#<$0$A#8$Z@f$f$o#0$t#;$w$D$7#7#6#:$6#7#_$q$J$K$L$Z#7#6#6#t#5#,#X#S#o@-#~#(#a@%#o@l#P+v+M$/.T+",
"|@r@H++@3@s@z+B+;+8+2@+@1@^#<$N#9$8$Z@f$[#Z@9$6#w$t#6#t#6#:$<$:$t#w$N$o$Z#_$7#6#6#t#_$Y#O$F@O$|$K#}$O@|@O@%#K@'#`+P$Q$R$",
"*@I.'+4@8@8@%@7@4@1++@M+O@;#;#;#/#6$9$h$Z@0#0$k#6#6#6#6#H$g$7$<$>$6#w$j#;$;$;$7#6#t#F#X#T#S$C#T$O$##v@u@|@|@D+{@w+c@v.U$",
"'+I.'+4@8@8@J+&#+@I.D@$#)$o@V$ #d#O@6$0$9$6$6#~#j#j#7#6#g$8$A#9$6$W$k#7#X$o$1#_$7#c#v#i#Y$q#Z$`$ %G@.%+%A$(#*@g+J@/@L@@%",
"&#+@C+#%8+J+2@1@*@u@w+ ###y#+$,$$%F#p@<$/#;$o$1#[$%%n$;$:$8$8$8$A#g$:$;$&%q$Y#*%=%;#;#v#5$-%s$Z$;%>%x@W+-#|@u@2+p+n./@]+",
"8+7@ @ @8+2@,%1@|@K@`+`#'%)%V@@$Y$[$c#>$H@i#x$!%!%!%B#p$6#8$~%Z@h$9$:$7#o$q$Y#{%o$;#/#^#;#o@'$F@s$s$]%W+b@D@+#c@'#E.%$S.",
"s@s@w  @$@+@+@*@r@'#x@L#Y+^%g@g@f#/%H@(%*%x$g#_%:%<%[%K$;$9$Z@f$~%9$6$6#j#o$Z#s#v#~#M@M@]@p@-#}%[@|%1%b@D@g+E.@%&+F+E.D@",
"w x B+#%$@e$+@a@%#w@x@!@y@2%;%L#m#y#*%o$q$!%3%4%5%6%3%7%_$6$Z@o#8$0$:$6#6#t#;$v#v#8%2@&@&@y+2@|@J@N+5@a@+@q+K@@+^+9%E@e+",
"x x 0%9+.+I.e+a@r@E.X+:@3$f@g@g@ $+$S#q$@#T#3%a%`$4%<%!%Z#<$8$8$9$:$7#t#j#=%v#d#o@%#1@K+&@&@&@]@1@1@2@y+&@2@5@{@G++#Y@8+",
"w w 0.m.N.2+I.*@q+r #+b%Y.t+f@f@c%+$/%5$2#s$a%a%d%a%3%Y$o$<$9$8$9$6#_$Z#1#[$X#E#.#v@|@&#y+3@a#e%1@2@y+k$t@&@2@e$*@*@2@8@",
"8+4@g+9#f%7+K@2+.+@.]+k.g%,@Y.!@f@h%5$%%/%4$i%j%d%a%k%l%H@<$A#8$9$7#1#2#B#Y$m%n%F@o%-#q@*#(#p@x+x+p@*#p%&@t@&@j@&@y+%@z+",
"e+D@o+P$T@q%r%E.l.m.n.s%l#'%t%Z.u+z@K#}$m$O$1$1$'@;%T$I#H@0$8$0#0$H@X#T#u%q#a%`$j$ #P@%#%#Q@o@w@.$}$)$O@(#M@j@&@9@9@A+C$",
"=@v%P#M$i@!@j+^$c@_#H+r@E@;@w%,@,@M#w@o@x#3#>%x%!$>%G@K#t#9$Z@0#<$1#h#q#k%Z$`$T$I#F#P@-#}$O+8#y%d@'$.#X@v@Q@8%M@N@<#b#<#",
"E@z%a+/.S+i@y@Y+R#c@A%q@D@_#7+~@f#i$=#o$5$+$ %x%~$j$o%v#<$8$Z@0#p@ #f#B%k%k% %M#>#I$P@C%D%E%j+Q+,@U@m#>@`#i$ #%#2@t@<#<#",
"b@]$5+u./.U.f@f@F%d@}%x+*@(#N+w@($ #Q@;#o@8#{$1${$i$F#^#A#Z@f$&@*#o@+$4$f#)%`#X@}@5#}%l#~@{$G%3$Y.'@Z.H%H%D#4$m$|@&@<#<#",
"+%E%I% +J%:@j+,@'@K%`+b@*@1@|@-#+#b@/#:#r@R@R#v+]$v@/#a#9@f$[#Z@0$c#o@[@($y#W+K@{@I@W+L%i+f@1$Z.S+T+'@3$~$3$G%]%-#2@9@s@",
"9#P+U.t.:@u+M%u+'@L#N%I@|@Y@.@$#r@a@a#y+*#%#+#w+{@a@a#9@<#<#[#Z@a#/#;#5#o@w++#u@u@9#O%>@g@g@d%Z.Y.3$y@1$'@'@P%W@v@a@&@s@",
"'#Q%U.R+k+l+,@ %g@j%`#R@-#$#b@F#c#2@N@t@&@e+a@*@1@a#<#<#<#<#[#t@y+p@A$%#b@r@r@|@-@R%T.:+S%!@'@'@T%Z.2%1$'@c$j%U@R@a@9@<#",
"w@U%u+j+V%t%j+>%P%2%W%##}@b@w+o@;#y+t@<#t@y+L+]@r$N@<#<#<#<#Z@&@1@|@5#Q@Q@%#5@$#9#b+M%f@f@W.Y.'@'@Y.y@y@Z.X%d%Y%%%1@s@u$",
"v@~@F%j+j+f@!@;%'@^%m#y#o@-#I@-#a@&@t@<#&@0@+@2@2@&@&@9@&@y+2@$@(#)$v@w@w+b@D@{@F+Q#^.t.(+!@U.Q+'@Z.Z.'@Z%c$y@O$}@2@z+z+",
"I@@%Q#V%m+H%S+j%d%,@q%[@}@%#D@Y@]@3@&@k$I+L+p@(#:#I+&#a@|@g+r@|@p@A$+#1%v%{@u@N+`%&$Y.s.m+,@ &(+m+Z.Y.c$~$.&W@o%q@y+t@%@",
"c@;@*$+&f@Z.Z.'@@&l@&+E.#&O@a@1@,%1@a@*@D@r@O@|@Y@q@b@v@7+$&7++%5@|@J@+#+%J@D@$#7+%&V.T+T+Q+,@f@f@'@Z.Z.!@m#.#5#(#k$z+8@",
"&&f%8#q%l@.&T%'@u+q%w@b@|@p@p@e+*@)$v@*&1%=&{@r@%#}@w@8#-&_+x@A@b@D@a@*@.+e+&#5@L@X+k+t.3$3$S+(+R+!@,@m+V@d@v@Y@K+s@z+s@",
"r%f%;&=${#W@n#V@P#9%E@|@p@:#+@p@u@R@>&x@z@,&I@$#-#R@z@ &s.Y.V%R#~+5@a@:#2@K+&@]@r@'&R%x@g%m+m+j+k+F%v+M#)&!&|@2@t@u$C$u$",
"'#~&r@5@b@E.f%f%s%2+p@4@2@4@2@:#_#n@}+_+w%,#}@j#}$@#e@@&t.c$!@w%w+$#(#M@&@z+z+%@K+e$D@+#[@{&^$M#R#&+9%c@N+|@I+8@%@t@t@8@",
"D@q+K+3@y+e+=@.@e+4@3@k$&@k$K++@N+]$6+/+z@W+I@P@d#+${$3$i@2$u+R#w+5@+@y+z+C$<#u$x s@&@&#p@b@!#}@+#E@{@.@e+J+3@&@K+2@a@a@",
"d+9+s@z+z+K.#%8@;+z+B+z+t@t@&@2@|@9#@%^$l#9#v@w+l#m#V%.&S+!@%&7+-#a@&#&@z+C$<#<#>+C$B+8@8+$@&#4@*#&#&##@k$l$k$&#f++#;&w@",
"7 ]&B+>+C$w w s@>+>+>+z+9@9@&@K+e+D@{@+%K@K@K@9#w%,@i@S%V%*$`++#x+1@y+^&z+s@8@3@K+y+K+J+K+K+8@8@k$J+&@z+8@8@0@m.]+^+q%<@",
"S.9+B+/&] w s@(&C$y 7@3@3@k$k$8+2@2@e+e+I.D+b@9#m@R+,@m#~@f%+#|@1@2@3@&@8+4@I.r@c+N+%+D.H+a@I+8+7@8@&@s@s@8+9+N.@+F [+`.",
"N.0.x x _&J.8@;+8@#%:&q+I.0.4@4@K+I+&#,%&#1@O@O+z@q%E%8#<&b@|@+@2@3@K+I+q+{@o+[&O%X+^+!.@%w@J@I.0.8+8@ @ @#@.+V+P.k T =+",
"/@0.x x ] y C+#@4@I.I ]+5.N.m.1+0.4@2@2@I+2@a@P@R@c@9#w+b@*@1@&#&@7@4@}&|+|&5+1&r.Q W.1&(+2&&&+#r@a@0.4@3&e+D@s%^+4&5&].",
"I.#%x a.6&C+A 0.1+D.$+4.y.-+1 7 3&0.&#2@K+K+4@q+r@_#g+u@D@7&2@3@Z@&@1@(@Q#R `.k+s.t$S+=+8&1.T.@%E.g+.@a@|@D@}&3 9&*+=+Q ",
":& @/&x ~ 9+1+d+g.+.N.0&P B@H.b..+A e++@I+4@4@'+H+|@u@b@A%,%J+s@A+;+e+c@v+/./.].].d$)@a&L.L.U.a+|%b&5@*@D.p+b.b.]+M !+L.",
"d+ @(&y C+1+d+.+1+I.2+1 c&o.E+D.I.d+q+m.S.D.I.m.m.J@c+u@D@e+8@B+s@K.q+d&G.^.R$].l e&=+e&/.=+].X A.=.D@q+3+> 9..+b.5.f&g&"};
