/* XPM */
static char *c1157bc39d5343b1888186b63c51bafe261I3jNkeDecV5l7[] = {
/* columns rows colors chars-per-pixel */
"60 60 101 2 ",
"   c black",
".  c #19110E",
"X  c #342015",
"o  c #225500",
"O  c #225904",
"+  c #225D08",
"@  c #2F5A0C",
"#  c #22610B",
"$  c #22620C",
"%  c #22640E",
"&  c #226610",
"*  c #266615",
"=  c #2F6316",
"-  c #2F6517",
";  c #2A661A",
":  c #2A6B1A",
">  c #2F691A",
",  c #2D681D",
"<  c #2D6C1C",
"1  c #33681D",
"2  c #2F6620",
"3  c #336625",
"4  c #336E23",
"5  c #336E24",
"6  c #376A2A",
"7  c #377327",
"8  c #446A2A",
"9  c #4C6F35",
"0  c #44663B",
"q  c #427035",
"w  c #447737",
"e  c #427933",
"r  c #4C6645",
"t  c #4A6C41",
"y  c #4C6E43",
"u  c #4E6848",
"i  c #51664B",
"p  c #516B4A",
"a  c #55774C",
"s  c #5E665B",
"d  c #577051",
"f  c #616B5F",
"g  c #627B5B",
"h  c gray40",
"j  c gray42",
"k  c gray43",
"l  c #6C7D68",
"z  c gray45",
"x  c #777777",
"c  c #7B7B7B",
"v  c gray50",
"b  c #824308",
"n  c #8F4D1F",
"m  c #D25149",
"M  c #D96268",
"N  c #4C803F",
"B  c #5F8156",
"V  c #668055",
"C  c #628C57",
"Z  c #66865B",
"A  c #66885D",
"S  c #6D8667",
"D  c #778A6A",
"F  c #77996E",
"G  c #748070",
"H  c #798675",
"J  c #779070",
"K  c #82A07A",
"L  c #4A6286",
"P  c #818181",
"I  c #848484",
"U  c #888888",
"Y  c gray55",
"T  c #889883",
"R  c #909090",
"E  c gray58",
"W  c gray60",
"Q  c #9D9D9D",
"!  c #8CA080",
"~  c #8CA685",
"^  c #99A296",
"/  c #A1B39D",
"(  c #A6B09F",
")  c gray64",
"_  c #AAAAAA",
"`  c #AEAEAE",
"'  c #AEB5AA",
"]  c #ACBAA9",
"[  c #B2B3B2",
"{  c #B6B7B6",
"}  c #B9B9B9",
"|  c gray75",
" . c #BFC0BF",
".. c #C1C2C1",
"X. c #CCCDCC",
"o. c #D2D3D2",
"O. c gray83",
"+. c #DDDDDD",
"@. c gray90",
"#. c #EEEEEE",
"$. c white",
/* pixels */
"o o o o o & & & & & & & & & & & & & & & & & & & & $ o o o o o o o o o $ & & & & & & & & & & & & & & O o o o o o o o o @ ",
"o o o o o & & & & & & & & & & & & & & & & & & & & $ o o o o o o o O O $ & & & & & & & & & & & & & & # O o o o o o o o @ ",
"o o o o o & & & & & & &                   & & & & $ o o o o o o o + & & & & & & & & & & & & & & & & & & O o o o o o o @ ",
"+ o o + + & & & e F F   X X X X X X X X X   A A A Z V 9 o 8 V V V Z A A A A A A A A A A A A A A A A A A 1 + + + o o o @ ",
"& o o & & & & & C X.    X X X X X X X X X     _ _ _ _ D o V _ _ _ _ _ _ _ _ _ _ _                     _ w & & & o o o @ ",
"& # + & & & e ~ /   X X X X X X X X X X X X     O.X. .' ! (  . . . . .o.O... .      X X X X X X X X   _ T J : & # + o @ ",
"& & & & & & N X.  X X X X X             X X X   #.@.X.X.X.X.X.X.X.X.X.@.#.o.  X X X X X X X X X X X X   _ _ 5 & & & o @ ",
"& & & & < / ] X.  X X X X X   m M M M     X X   O.o.X.X.X.X.X.X.X.X.X.| } [   X X X X X X X X X X X X     _ T T 5 & $ - ",
"& & & & 7 X.X.    X X X     m m M M M M   X X n   X.X.X.X.X.X.X.X.X.X.[ _   n X X X             X X X X X   _ _ 5 & & > ",
"o % & & 7 X.    X X     m m M M M M M M   n n n   X.X.X.X.X.X.X.X.} ` ` _   n n     M M M M M m     X X X X   _ ^ ^ & > ",
"o % & & 7 X.  X X   m m M M M M M M M M                                     n n     M M M M M M m m   X X X     _ _ & > ",
"o o o o o o   X X   m m M M M M M       n n n n n n n n n n n n n n n n n n         M M M M M M M M m   X X X   _ _ & > ",
"o o o o o o   X X   m m M M       n n n n n n n n n n n n n n n n n n n n n n n       M M M M M M M M   X X X   _ _ & > ",
"o o o o o o   X X   m m M M       n n n n n n n n n n n n n n n n n n n n n n n n n   M M M M M M M M   X X X   Y U & > ",
"o o o o o o   X X n     m   n n n n n n                               n n n n n n n n       M M M M M   X X X   Y U & > ",
"o o o o o o   X X n n n   n n n n n n     X X X X X X X X X X X X X X     n n n n n n n n n     m m m   X X X   Y U & > ",
"O O O O O O   X X n n n   n n n n         X X X X X X X X X X X X X X         n n n n n n n     m m   X X X X   Y U & > ",
"& & & & & & &     n     n n       X X X X X X X X X X X X X X X X X X X X X X     n n n n n n n       X X X n   Y U & > ",
"& & & & < C C C N   n n n   X X X X X X X X X X X X X X X X X X X X X X X X X X     n n n n n n n n   n n n   _ P c & > ",
"& & & & 7 X.X.X.~   n n n   X X X X X X X X X X X X X X X X X X X X X X X X X X       n n n n n n n   n n n   _ k h & > ",
"& & & F K X.o.+.  n n n   X X X X X X X X X X X X X X X X X X X X X X X X X X X X X X   n n n n n n n   n   W W z k & > ",
"& & & X.X.X.O.    n     X X X X X X X X X X X X X X X X X X X X X X X X X X X X X X X X     n n n n n     _ Y U c x & > ",
"& & & X.X.X.  n n   X X X           X X X X X X X X X X X X X X X X X X X X X X X X X X X X   n n n n n n   v x Y R & > ",
"& & & X.X.X.  n   X X X   n n n n     X X X X X X X X X X X X X X X X X X X         X X X X X   n n n n n   k h ) _ & > ",
"& & & X.X.  b b   X X   n n n n n n   X X X X X X X X X X X X X X X X X X   n n n n   X X X X X     n n n n   h I U & > ",
"& & & X.X.  b     X     n n n n n n       X X X X X X X X X X X X X X X X   n n n n   X X X X X     n n n n   h x x & > ",
"& & & X.X.  b   X   n n n n n n n n n n   X X X X X X X X X X X X X X X   n n n n n n   X X X X X X   n n n   W z j & > ",
"& & & X.  n   X X   n n n n n n           X X X X X X X X X X X X X X   n n n n n n n n     X X X X   n n n n   k h & > ",
"& & &     n   X X   n n n n n n           X X X X X X X X X X X X X X   n n n n n n n n     X X X X   n n n n     ; & > ",
"& & &   n n   X   n n n n       L   $.$.  X X X X X X X X X X X X X X         n n n n n n n   X X X X   n n n n   & & > ",
"& &   n n   X X   n n n   L L L L   $.$.  X X X X X X X X X X X X X X   $.  L       n n n n   X X X X   n n n n n   & > ",
"& &   n n   X X   n     L L L L L   $.$.  X X X X X X X X X X X X X X   $.  L L L L     n n   X X X X   n n n n n   & > ",
"& &   n n   X X   n     L L L L L   $.$.  X X X X X X X X X X X X X X   $.  L L L L     n n   X X X X   n n n n n   & > ",
"& &   n n   X X X   L L L L L L L   $.$.  X X X X X X X X X X X X X X   $.  L L L L L L       X X X X   n n n n n   & > ",
"& &   n n   X X X   L L L L L L   $.$.$.  X X X X X X X X X X X X X X   $.  L L L L L L       X X X X   n n n n n   & > ",
"& &   n n   X X X   L L L L L L   $.$.$.  X X X X X X X X X X X X X X   $.  L L L L L L       X X X X   n n n n n   & > ",
"& &   n n   X X X $.            $.$.    X X X X X X X X X X X X X X X   $.$.  L L L L   $.$.  X X X X   n n n n n   & > ",
"& &   n n   X X X   $.$.$.$.$.$.$.  X X X X X                 X X X X X   $.$.        $.$.$.  X X X X   n n n n n   + = ",
"& &   n n   X X X X     $.$.$.$.  X X X X     n n n n n n n n   X X X X X   o $.$.$.$.$.    X X X X X   n n n n n   o @ ",
"& &   n n   X X X X X X         X X X X   n n n n n n n n n n n   X X X X X             X X X X X X   n n n n n n   o @ ",
"& &   n n n   X X X X X X X X X X       n n n n n n n n n n n n n       X X X X X X X X X X X X X X   n n n n n n   o @ ",
"& &   n n n   X X X X X X X X X X   n n n n n n n n n n n n n n n n n   X X X X X X X X X X X X X X   n n n n n n   o @ ",
"& &   n n n n     X X X X X X X   n n n n n n           n n n n n n n n     X X X X X X X X X X     n n n n n n n   o @ ",
"& &   n n n n n n               n n n n n n   . . . . .   n n n n n n n n n   X X X X X X X X   n n n n n n n n n   o @ ",
"& &   n n n n n n n n n n n n n n n n n n n   . . . . .   n n n n n n n n n   X X X X X X X X   n n n n n n n n n   o @ ",
"& & &   n n n n n n n n n n n n n n n n n   . . . . . . .     n n n n n n n n                 n n n n n n n n n   & $ - ",
"& & &   n n n n n n n n n n n n n n n n   . . . . . . . . X X   n n n n n n n n n n n n n n n n n n n n n n n n   & & > ",
"& & &     n n n n n n n n n n n n n n n   . . . . . . . . X X   n n n n n n n n n n n n n n n n n n n n n n n     & & > ",
"& & & & &   n n n n n n n n n n n n n n   . . . . . . . . X X X   n n n n n n n n n n n n n n n n n n n n n   U , & & > ",
"& & & & & &   n n n n n n n n n n n n n   X . . . . . . . X X X   n n n n n n n n n n n n n n n n n n n n   j h ; & & > ",
"& & & & & & &       n n n n n n n n n n   X X . . . . . X X X X   n n n n n n n n n n n n n n n n n n     P f s ; & & > ",
"& & & & & & & & & &       n n n n n n n n   X X X X X X X X X   n n n n n n n n n n n n n n n n n n   U k h ; & & & & > ",
"& $ $ $ $ & & & & & 4 w J   n n n n n n n n   X X X X X X     n n n n n n n n n n n n n n n n n n   Y v k h ; & & & & > ",
"& o o o o & & & & & A _ _       n n n n n n   X X X X X X     n n n n n n n n n n n n n n n n       z h h h ; & & & & > ",
"+ o o o o + $ & & & B Q ) _ {  .    n n n n n             n n n n n n n n n n n n n n         E U P z h i r * & # + + = ",
"o o o o o o O & & & a U W _ _ _ R U   n n n n n n n n n n n n n n n n                 U U U E _ R x k h 3 & & & o o o @ ",
"o o o o o o O & & & q g H R R R P c       n n n n n n n n n n n       S J p r r u g l P v c I R G d p r 2 & # + o o o @ ",
"o o o o o o O & & & & & 0 h h h h h ; & &                       & & & & & & & & & & 6 x z h h h 0 & & & & & o o o o o @ ",
"o o o o o o o + # & & & 3 0 0 0 0 0 * & + + o o o o o o o O + $ & & & & & & & & & & , y t 0 0 0 3 & & & & & o o o o o @ ",
"o o o o o o o o O & & & & & & & & & & & o o o o o o o o o o o + & & & & & & & & & & & & & & & & & & & & & & o o o o o @ "
};
