/* XPM */
static char *_3282af90ec94b0ba031f79a869e9005K69YdjtmLq0yfRut[] = {
/* columns rows colors chars-per-pixel */
"60 60 57 1 ",
"  c #A9A39A",
". c #AAA49B",
"X c #ACA69D",
"o c #AAAAAA",
"O c #ACACAC",
"+ c gray68",
"@ c #B3ADA4",
"# c #B4AEA4",
"$ c #B6B1A7",
"% c #B9B2A8",
"& c #BDB7AE",
"* c #BEB8AF",
"= c #B2B2B2",
"- c #B5B3B0",
"; c #B3B4B3",
": c #B6B4B1",
"> c #B7B7B7",
", c #B8B6B3",
"< c #BAB8B4",
"1 c #BCBAB7",
"2 c #BBBBBB",
"3 c gray75",
"4 c #C0BEBA",
"5 c #BFC0BF",
"6 c #C3C2BE",
"7 c #C4C3BF",
"8 c #C0C0C0",
"9 c #C2C3C2",
"0 c #C3C4C3",
"q c #C6C5C1",
"w c #C4C5C4",
"e c #C7C8C7",
"r c #CBC9C6",
"t c #CCCAC6",
"y c #CACBCA",
"u c #CBCCCB",
"i c #CCCDCC",
"p c #D2CFCD",
"a c #CFD0CF",
"s c #D2D1CE",
"d c #D4D2CF",
"f c #D2D3D2",
"g c #D5D3D0",
"h c #D3D4D3",
"j c #D7D7D7",
"k c #D7D8D7",
"l c #DBDAD7",
"z c gray86",
"x c #DBDCDB",
"c c #DFDDDA",
"v c gainsboro",
"b c #DDDDDD",
"n c #E2E0DD",
"m c gray88",
"M c #E6E6E6",
"N c #EAEAEA",
"B c #ECECEC",
/* pixels */
"7u33bbbbbbbbbbbaiiiiy2222222wiiiiiiiiiiiijbbbaiiizzifbbbbbbb",
"rf33bbbbbbbbbbbjjjjjf0000032wiiiiiiiiiiiifjjjiiiiiiifbbbbbbb",
"sz33bbbbbbbbbbbbbbbbziiiii92wiiiiiiiiiiiiiiiiiiiy35ifbbbbbbb",
"sz33bbbzhkbbbbbbbbbbbjjjjjw2wiiiiiiiiiiiiiiiiiiiy35ifbbbbbbb",
"sz33bbbjijbbbbbbbbbbbbbbbby2wiiiiiiiiiiiiiiiiiiiy35ifbbbbbbb",
"gz33fffaiafzbbbbbbbbbbbbbby2wiiiiu999wiiiiiiiiiiy35ifbbbbbbb",
"pz33uuuuuuujbbbbbbbbbbbbbby2wuuuuy3229uuuuuuuuuuy33yfbbbbbbb",
"qi323333333eiiiiizzafbbbbby23333332223333333333332330iiiiiii",
"6y322222222wuuuiizzifbbbbby22222222222222222222222229uuuuuuu",
":322222229u9333yiiiiiiiiiiiu92222222222222222222222223333333",
",33333333wiw333iffffffffffffw3333399333323333333333333333333",
"szzzzzzzzzbzzauMBBBBBBBBBBBBmzzzbbbbzjuw2izzzzzzzzzzzzzzzzfy",
"sbbbbbbzzzbbbfiMBBBBBBBBBBBBMmmmmmmmmzay3ibbbbbbbbbbbbbbbbfi",
"sbbbbbbjijbbbfiMBBBBBBBBBBBBBBBBBBBBBNbjijbbbbbbbbbbbbbbbbfi",
"sbbbbbzjifzzzfiMBBBBBBBBBBBBBBBBBBBBBNbjizmmmbbbbbbbzzzzzbfi",
"sbbbbziiiiiiiiiMBBBBBBBBBBBBBBBBBBBBBNbjibBBBmbbbbbbjiiijbfi",
"sbbbjhiiiiiiiw9MBBBBBBBBBBBBBBBBBBBBBNbjizMMMbbbbbbbzjfifjy9",
"dbbxiiiiiiiii32mBBBBBBBBBBBBBBBBBBBBBNbjijbbbbbbbbbbbbjiii92",
"6yyy99999999932jzzzzzzzzzzzzzzzzzzzzzkji9wyfhhhhfyihhhy99932",
"-22222222222222yiiiiiiiiiiiiiiiiiiiiiiiw222eiiiiy35iii022222",
"4w33fffffffffffiiiiiiiiiiiw99999yiiiiiiw22233399525iiiywifff",
"7u33bbbbbbbbbbbfiiiiiiiiii923333yiiiiiiw33332233225iiiiijbbb",
"7u33bbbbbbbbbbbzzzzzzzzzzzw2wyyyiiiiiiiyyyyyyeyye35iiiiiiaaa",
"6y33bbbbbbbbbbbbbbbbbbbbbbw2wiiiiiiiiiiiiiiiiiiiy33yuiiiiiii",
",323bbbbbbbbbbbbbbbbbbbbbby2wiiiiiiiiiiiiiiiuuiiy3239iiiiiii",
"-223bbbbbbbbbbbbbbbbbbbbbby2wiiiiiiiiiiiiiiiuiiiy3229iyyyyyy",
"-223bbbbbbbbbbbbbbbbbbbbbby2wiiiiiiiiiiiiiiiiiiiy3229i022222",
"-223zzzzzzzzzzzzzzzzzzzzzzw2wyyyuiiiiiiiiyyyyyyyw2229y922222",
"-223iiiiiiiiiiiiiiiiiiiiii922333yiiiiiiii93333332o+223222222",
"<523wwwwwwwwwwwweiiiiiiiii922222wwwwwwwww92222222+=222222222",
"qu322222222222223yiiiiiiii9222222222222222222222222222222222",
"tjiiiiiiiiiii92yijjjjjjjjjaiiiiijjjfiyw929wwwwwwwwwwwwww329w",
"sbbbbbbbbbbbbw2jbbbbbbbbbbbbbbbbBBBNbkiw2wiiiiiiiiiiiiii92wi",
"lMMMMMMMbbbbbw2ihxbbxfjbbbbbbbbbmMMmbzjy2wiiiiiiiiiiy9wiywyi",
"nBBBBBBNbbbbbw2yizbbzifbbbbbbbbbbbbbbbbi2wiiiiiiiiiiw29iiiii",
"nBBBBBBNbbbMNy2yizzfaifbbbbbbbbbbbNNNMbi2wiiiiiiiiiiyyyiiiii",
"nBBBBBBNbbbMBy2yizziuufbbbbbbbbbbbBBBNbi2wuiiiiiiuiiiiiiiiii",
"nBBBmmmbbbbbmw23399333waaazbbbbbbbBNmmbi233yiiiiy39iiiiiiiii",
"cBBNzzzzzzzzzw222222229yyyjzzzzzzbNMzzzi222wyyyyy23yyyyyyyyy",
"19993333333333222++++2333333>=33399933332=+2333=++++>3>+++23",
"-2333333333333333=++=3333332;+399999999992=3999==+++=3>+++23",
"-3yiiiiiiiiiiiiiiuuuuiiiii92wuzbbbbbbbbbbbbbbbbbzie29iuuuuii",
":3yiiiiiiiiiiiiiiiiiiiiiyy93yazbbbbbbbbbbbbbbbbbbfu30iiaaaaa",
":3yiiiiiiiiiiiiiiiiiiiiiw2wikbbbbbbbbbbbbbbbbbbbbbziiijbbbbb",
"-3yiiiiiiiiiiiiiiiiiiiiiw2wibmmmbbbbbbbbbbbbbbbbbjjiiijbbbbb",
"-3yiiiiiiiiiiiiiiiiiiiiiw2wimBBBbbbbbbbbbbbbbbbbziiiiijbbbbb",
"-2yiiiiiiywwwyiiiiiiiiiiw29wbMMMbbbbbbbbbbbbbbbbziiiihzbbbbb",
"-3yiiiiiiw222eiiiiiiiiiiw222fbbbbbbbbbbbbbbbbbbbziiifbbbbbbb",
"-2>>>>>>>2222992>>>>29993222wyffffyyyyfiyifffffyyuw>3yyyifff",
":2ooooooo=22222+oooo+222222222yiiy3229iw2wiiiii33y0o=222wiii",
"4ew000000weeeee2>>29weeeeeee32yiiueeeyiw2wiiiiiyyiy0weeeyiii",
"7iiiiiiiiiiiiii3223uiiiiiiii92yiiiiiiiiw2wiiiiiiiiiiiiiiiiii",
"pzzzzzzzzzzzzzziy33zzzzzzzzzzjzzzzzzzzzi2wiiiiiiiiiiiiiiiiii",
"sbbbbbbbbbbbbbbau33zbbbbbbbbbbbbbbbbbbbi2wiiiiiiiiiiiiiiiiii",
"sbbbbbbbbbbbbbbau33zbbbbbbbbbbbbbbbbbbbi2wiiiiiiiiiiiiiiiiii",
"gbbbbbbbbbbbbbbau33zbbbbbbbbbbbbbbbbbbbi2wiiiiiiiiiiiiiiiiii",
"sbbbbbbbbbbbbbbau33zbbbbbbbbbbbbbbbbbbbi2wiiiiiiiiiiiiiiiiii",
"sbbbbbbbbbbbbbbau33zbbbbbbbbbbbbbbbbbbbi29eeeeeuiiiiiiiiiiii",
"sbbbbbbbbbbbbbbau23zbbbbbbbbbbbbbbbbbbbi2222222yiiiiiiiiiiii",
"%**************$#.X&*******************$       @############"
};
